<svg width="1917" height="844" viewBox="0 0 1917 844" fill="none" xmlns="http://www.w3.org/2000/svg">
<path fill-rule="evenodd" clip-rule="evenodd" d="M0 487.433L107.033 501.915C212.467 516.397 426.533 545.361 639 458.469C851.467 371.577 1065.53 168.83 1278 81.9384C1490.47 -4.95332 1704.53 24.0106 1809.97 38.4925L1917 52.9745V835H1809.97C1704.53 835 1490.47 835 1278 835C1065.53 835 851.467 835 639 835C426.533 835 212.467 835 107.033 835H0V487.433Z" fill="url(#paint0_linear_43_400)"/>
<path d="M1720.25 438.964C1720.25 438.964 1715.18 571.27 1604.3 657.257C1493.41 743.243 1340.65 746.467 1216.92 752.325C1093.19 758.182 998.645 686.071 985.022 579.693C971.4 473.315 1066.05 444.096 1118.17 324.383C1170.3 204.67 1165.93 164.867 1274.9 92.84C1383.88 20.813 1553.3 69.7988 1641.47 198.863C1729.63 327.928 1720.25 438.964 1720.25 438.964Z" fill="#C3AC58"/>
<path opacity="0.7" d="M1720.25 438.964C1720.25 438.964 1715.18 571.27 1604.3 657.257C1493.41 743.243 1340.65 746.467 1216.92 752.325C1093.19 758.182 998.645 686.071 985.022 579.693C971.4 473.315 1066.05 444.096 1118.17 324.383C1170.3 204.67 1165.93 164.867 1274.9 92.84C1383.88 20.813 1553.3 69.7988 1641.47 198.863C1729.63 327.928 1720.25 438.964 1720.25 438.964Z" fill="white"/>
<path d="M1368.72 801.108C1583.11 801.108 1756.91 766.442 1756.91 723.679C1756.91 680.917 1583.11 646.251 1368.72 646.251C1154.33 646.251 980.532 680.917 980.532 723.679C980.532 766.442 1154.33 801.108 1368.72 801.108Z" fill="#C3AC58"/>
<path opacity="0.5" d="M1368.72 801.108C1583.11 801.108 1756.91 766.442 1756.91 723.679C1756.91 680.917 1583.11 646.251 1368.72 646.251C1154.33 646.251 980.532 680.917 980.532 723.679C980.532 766.442 1154.33 801.108 1368.72 801.108Z" fill="white"/>
<path d="M1695.15 653.509C1695.15 653.509 1733.85 585.179 1742.87 553.664C1751.88 522.149 1717.97 546.912 1717.97 546.912C1717.97 546.912 1758.23 480.388 1761.35 436.618C1764.47 392.848 1718.29 447.084 1718.29 447.084C1718.29 447.084 1734.16 390.688 1737.62 341.854C1741.08 293.02 1719.05 316.838 1719.05 316.838C1719.05 316.838 1717.21 223.643 1704.7 232.893C1692.19 242.144 1686.67 272.241 1686.67 272.241C1686.67 272.241 1679.67 180.346 1669.46 205.008C1659.24 229.669 1675.4 359.426 1675.4 359.426C1675.4 359.426 1651.44 291.72 1645.57 326.847C1639.7 361.975 1683.48 459.845 1683.48 459.845C1683.48 459.845 1661.24 463.339 1658.48 478.413C1655.73 493.487 1691.1 568.603 1691.1 568.603C1691.1 568.603 1661.74 529.289 1656.46 555.977C1651.17 582.664 1680.9 664.329 1680.9 664.329L1695.15 653.509Z" fill="#007143"/>
<path d="M1738.63 517.828C1733.23 498.838 1718.8 511.346 1718.8 511.346C1718.8 511.346 1749.43 413.678 1736.44 405.981C1723.44 398.284 1712.52 432.989 1712.52 432.989C1712.52 432.989 1728.23 283.5 1719.27 291.315C1710.31 299.13 1705.11 347.846 1705.11 347.846C1705.11 347.846 1694.47 211.776 1682.66 234.632C1670.84 257.488 1684.75 395.549 1684.75 395.549C1684.75 395.549 1662.6 326.341 1660.46 356.59C1658.31 386.839 1681.66 486.701 1681.66 486.701C1681.66 486.701 1655.19 478.058 1655.8 493.318C1656.41 508.578 1671.7 579.068 1671.7 579.068C1671.7 579.068 1655.34 571.135 1659.31 586.648C1663.28 602.16 1681.95 649.104 1681.95 649.104L1701.8 655.585C1701.8 655.585 1730.49 608.558 1718.68 609.402C1715.29 609.573 1711.98 610.454 1708.96 611.986C1705.93 613.519 1703.26 615.669 1701.12 618.298C1701.12 618.298 1744.05 536.784 1738.63 517.828Z" stroke="#393939" stroke-linecap="round" stroke-linejoin="round"/>
<path d="M1691.82 647.28C1691.82 647.28 1700.53 491.495 1696.89 392.899" stroke="#393939" stroke-linecap="round" stroke-linejoin="round"/>
<path d="M1708.13 719.088H1671.21L1666.87 639.752H1712.45L1708.13 719.088Z" fill="#393939" stroke="#393939" stroke-linecap="round" stroke-linejoin="round"/>
<path d="M1141.87 292.108C1146.97 293.132 1151.79 295.22 1156.02 298.236C1161.92 302.793 1183.48 337.887 1191.46 345.5C1199.45 353.113 1208.92 362.481 1205.63 370.026C1202.34 377.572 1197.19 390.789 1182.97 385.218C1168.76 379.648 1164.95 372.44 1161.17 365.84C1157.38 359.24 1145.13 349.332 1145.13 349.332" fill="#ECC424"/>
<path d="M1141.87 292.108C1146.97 293.132 1151.79 295.22 1156.02 298.236C1161.92 302.793 1183.48 337.887 1191.46 345.5C1199.45 353.113 1208.92 362.481 1205.63 370.026C1202.34 377.572 1197.19 390.789 1182.97 385.218C1168.76 379.648 1164.95 372.44 1161.17 365.84C1157.38 359.24 1145.13 349.332 1145.13 349.332" stroke="#393939" stroke-linecap="round" stroke-linejoin="round"/>
<path d="M1200.38 364.405C1190.37 353.569 1181.52 361.671 1175.61 370.989C1169.05 381.37 1163.21 392.207 1157.4 403.061C1157.4 403.061 1148.66 411.366 1148.22 415.299C1147.78 419.232 1154.77 429.714 1158.35 429.292C1161.92 428.87 1168.85 426.659 1169.28 424.481C1169.72 422.304 1166.23 422.793 1166.23 422.793L1168.85 418.86L1167.16 409.526C1178.65 399.735 1196.44 384.493 1201.42 379.496C1206 374.82 1204.38 368.744 1200.38 364.405Z" fill="white" stroke="#393939" stroke-linecap="round" stroke-linejoin="round"/>
<path d="M1078.96 427.705C1078.96 427.705 1074.33 447.506 1076.31 453.464C1078.28 459.423 1085.48 474.109 1085.48 474.109L1100.43 664.38L1116.6 663.975L1123.93 463.71L1127.2 463.322L1133.03 663.975L1149.69 664.633L1160.91 470.631C1160.91 470.631 1162.6 445.548 1162.6 442.897C1162.6 440.247 1158.23 415.889 1158.23 415.889L1078.96 427.705Z" fill="#393939" stroke="#393939" stroke-linecap="round" stroke-linejoin="round"/>
<path d="M1100.43 664.38C1100.43 664.38 1081.24 680.264 1080.83 685.666C1080.43 691.067 1096.26 688.586 1102.93 680.602C1109.6 672.617 1115.98 674.761 1116.28 669.343L1116.6 663.924L1100.43 664.38Z" fill="white" stroke="#393939" stroke-linecap="round" stroke-linejoin="round"/>
<path d="M1149.13 664.38C1149.13 664.38 1168.32 680.247 1168.74 685.666C1169.17 691.084 1153.3 688.586 1146.63 680.602C1139.96 672.617 1133.6 674.761 1133.28 669.343L1132.96 663.924L1149.13 664.38Z" fill="white" stroke="#393939" stroke-linecap="round" stroke-linejoin="round"/>
<path d="M1148.47 316.162L1146.58 293.999C1134.31 288.8 1112.52 288.091 1106.07 290.623C1106.07 290.623 1068.81 309.495 1065.03 313.276C1061.25 317.057 1048.47 373.706 1048.47 383.176C1048.47 392.646 1053.67 399.212 1063.09 401.103C1072.51 402.993 1078.67 391.194 1078.67 391.194C1078.67 391.194 1073.47 419.89 1074.42 423.266C1075.36 426.642 1077.12 431.453 1080.88 431.925C1084.65 432.398 1153.65 429.393 1156.49 427.976C1159.33 426.558 1161.2 423.739 1161.2 417.139C1161.2 410.538 1151.76 343.559 1151.76 343.559" fill="#ECC424"/>
<path d="M1148.47 316.162L1146.58 293.999C1134.31 288.8 1112.52 288.091 1106.07 290.623C1106.07 290.623 1068.81 309.495 1065.03 313.276C1061.25 317.057 1048.47 373.706 1048.47 383.176C1048.47 392.646 1053.67 399.212 1063.09 401.103C1072.51 402.993 1078.67 391.194 1078.67 391.194C1078.67 391.194 1073.47 419.89 1074.42 423.266C1075.36 426.642 1077.12 431.453 1080.88 431.925C1084.65 432.398 1153.65 429.393 1156.49 427.976C1159.33 426.558 1161.2 423.739 1161.2 417.139C1161.2 410.538 1151.76 343.559 1151.76 343.559" stroke="#393939" stroke-linecap="round" stroke-linejoin="round"/>
<path d="M1080.46 355.071L1080.07 337.397" stroke="#393939" stroke-linecap="round" stroke-linejoin="round"/>
<path d="M1114.27 327.962C1123.78 327.962 1131.49 319.512 1131.49 309.09C1131.49 298.667 1123.78 290.218 1114.27 290.218C1104.76 290.218 1097.05 298.667 1097.05 309.09C1097.05 319.512 1104.76 327.962 1114.27 327.962Z" fill="white" stroke="#393939" stroke-linecap="round" stroke-linejoin="round"/>
<path d="M1103.18 276.072C1103.18 276.072 1103.18 310.035 1106.56 316.162C1109.93 322.29 1122.12 324.18 1123.07 316.162C1124.01 308.144 1123.54 278.908 1123.54 278.908L1103.18 276.072Z" fill="white" stroke="#393939" stroke-linecap="round" stroke-linejoin="round"/>
<path d="M1123.59 292.463C1123.59 285.036 1123.47 278.959 1123.47 278.959L1103.22 276.123C1103.22 276.123 1103.22 281.525 1103.44 288.412C1106.24 290.627 1109.52 292.149 1113.03 292.853C1116.53 293.557 1120.15 293.423 1123.59 292.463Z" fill="#393939" stroke="#393939" stroke-linecap="round" stroke-linejoin="round"/>
<path d="M1137.15 212.401C1137.15 212.401 1140.52 246.836 1141.4 256.745C1142.28 266.653 1138.56 278.908 1125.84 283.618C1113.11 288.327 1102.73 281.744 1096.11 272.781C1089.49 263.818 1087.67 263.345 1087.67 263.345C1086.62 263.6 1085.53 263.643 1084.46 263.473C1083.39 263.302 1082.36 262.921 1081.44 262.35C1080.52 261.78 1079.72 261.033 1079.09 260.152C1078.47 259.271 1078.02 258.273 1077.78 257.217C1075.41 249.199 1082.01 245.891 1087.2 244.473C1087.2 244.473 1078.76 225.145 1078.76 219.946C1078.76 214.747 1087.7 203.91 1106.58 199.201C1125.45 194.491 1137.15 212.401 1137.15 212.401Z" fill="white" stroke="#393939" stroke-linecap="round" stroke-linejoin="round"/>
<path d="M1122.05 232.691L1122.53 240.236C1122.53 240.236 1133.38 241.181 1129.6 244.473C1126.66 246.722 1123.29 248.331 1119.69 249.199" stroke="#393939" stroke-linecap="round" stroke-linejoin="round"/>
<path d="M1104.6 259.091C1106.38 260.818 1108.57 262.07 1110.96 262.731C1113.35 263.391 1115.87 263.44 1118.29 262.872" stroke="#393939" stroke-linecap="round" stroke-linejoin="round"/>
<path d="M1110.27 238.818C1110.27 241.03 1109.21 242.819 1107.91 242.819C1106.61 242.819 1105.55 241.03 1105.55 238.818C1105.55 236.607 1106.61 234.801 1107.91 234.801C1109.21 234.801 1110.27 236.607 1110.27 238.818Z" fill="#393939"/>
<path d="M1128.18 238.582C1129.49 238.582 1130.54 236.783 1130.54 234.564C1130.54 232.346 1129.49 230.547 1128.18 230.547C1126.88 230.547 1125.82 232.346 1125.82 234.564C1125.82 236.783 1126.88 238.582 1128.18 238.582Z" fill="#393939"/>
<path d="M1098.95 231.746C1098.95 231.746 1103.18 226.074 1112.62 226.547" stroke="#393939" stroke-linecap="round" stroke-linejoin="round"/>
<path d="M1120.64 221.364C1121.18 219.265 1122.52 217.458 1124.36 216.317C1126.21 215.176 1128.42 214.789 1130.54 215.237" stroke="#393939" stroke-linecap="round" stroke-linejoin="round"/>
<path d="M1082.44 244.473C1082.44 244.473 1089.51 252.018 1091.87 248.254C1094.24 244.49 1091.87 237.873 1092.35 232.691C1092.82 227.509 1098.47 227.964 1096.58 223.728C1094.69 219.491 1088.14 224.2 1088.14 219.474C1088.14 214.747 1100.89 207.219 1113.14 207.219C1125.4 207.219 1138.61 219.035 1149.47 213.819C1160.32 208.603 1156.07 197.31 1149.94 192.128C1143.81 186.946 1131.54 187.402 1131.54 187.402C1131.54 187.402 1146.63 182.692 1141.45 177.966C1136.27 173.239 1123.05 172.784 1115.98 175.62C1108.9 178.455 1101.31 182.304 1101.31 182.304C1101.31 182.304 1107.44 172.395 1098.95 176.649C1095.62 178.211 1092.64 180.44 1090.21 183.199C1087.77 185.957 1085.93 189.186 1084.8 192.685C1082.44 198.813 1080.55 203.05 1080.55 203.05C1080.55 203.05 1074.89 198.813 1070.65 200.703C1066.42 202.594 1074.03 204.079 1074.03 204.079C1074.03 204.079 1064.12 209.751 1065.59 217.296C1067.06 224.842 1075.97 235.679 1078.34 237.096C1080.7 238.514 1082.44 244.473 1082.44 244.473Z" fill="#393939" stroke="#393939" stroke-linecap="round" stroke-linejoin="round"/>
<path d="M1130.54 323.235V303.435C1130.54 301.544 1142.82 300.599 1142.82 300.599L1143.27 303.435L1138.09 306.254L1141.6 314.086C1141.6 314.086 1159.31 302.49 1161.2 304.853C1161.95 305.991 1162.31 307.343 1162.23 308.705C1162.14 310.066 1161.61 311.362 1160.73 312.398C1159.79 313.472 1159.15 314.768 1158.85 316.162C1158.85 316.162 1159.31 328.907 1156.02 330.308C1152.73 331.709 1135.25 336.452 1135.25 336.452C1121.43 352.826 1107.45 369.368 1090.83 383.024C1084.07 388.594 1075.99 397.997 1067.35 392.713C1059.04 387.649 1059.24 374.905 1064.51 368.051C1073.95 355.78 1086.45 353.417 1098.98 346.462C1110.29 339.858 1120.87 332.072 1130.54 323.235Z" fill="white" stroke="#393939" stroke-linecap="round" stroke-linejoin="round"/>
<path d="M1141.6 314.086L1144.98 283.196C1145.05 282.292 1145.45 281.447 1146.11 280.823C1146.77 280.2 1147.63 279.842 1148.54 279.82L1159.81 279.01C1160.31 278.998 1160.8 279.087 1161.26 279.27C1161.72 279.453 1162.14 279.726 1162.49 280.075C1162.84 280.423 1163.12 280.838 1163.31 281.296C1163.49 281.754 1163.59 282.245 1163.58 282.74L1161.22 304.92L1141.6 314.086Z" fill="#393939" stroke="#393939" stroke-linecap="round" stroke-linejoin="round"/>
<path d="M1608.89 565.868C1608.89 565.868 1618.34 542.236 1612.27 493.284C1609.62 471.779 1611.51 427.604 1582.1 426.169C1550.72 424.65 1537.91 427.756 1506.46 428.111C1393.03 429.41 1309.61 440.72 1240.45 434.052C1184.86 428.685 1136.91 419.873 1117.23 439.64C1097.54 459.406 1099.18 501.505 1100.9 509.675C1102.63 517.845 1115.49 573.667 1115.49 573.667L1605.89 571.456L1608.89 565.868Z" fill="#017D4B" stroke="#003E26" stroke-linecap="round" stroke-linejoin="round"/>
<path d="M1121.94 551.757C1121.94 551.757 1112.48 513.945 1097 503.632C1081.53 493.318 1061.35 504.493 1044.68 520.816C1028 537.138 1023.19 556.483 1030.08 588.707C1036.96 620.931 1057.08 668.617 1063.16 690.105C1069.24 711.593 1069.17 722.768 1089.36 729.638C1109.55 736.508 1128.89 736.947 1141.35 719.746C1153.81 702.546 1150.38 623.53 1140.49 593.855C1130.6 564.18 1121.94 551.757 1121.94 551.757Z" fill="#00955B" stroke="#003E26" stroke-linecap="round" stroke-linejoin="round"/>
<path d="M1120.21 718.463C1111.62 702.208 1085.85 585.736 1086.27 569.801C1086.69 553.867 1073.81 527.264 1057.91 525.103C1044.81 523.415 1034.28 535.872 1031.05 540.295C1025.99 552.904 1025.62 568.181 1029.99 588.673C1036.86 620.897 1036 669.579 1042.01 691.067C1048.02 712.555 1047.97 723.764 1068.22 730.634C1081.51 735.158 1115.49 735.884 1126.31 731.647C1124.58 727.117 1122.55 722.713 1120.21 718.463Z" fill="#007143" stroke="#003E26" stroke-linecap="round" stroke-linejoin="round"/>
<path d="M1583.06 551.031C1583.06 551.031 1593.06 513.219 1609.38 502.906C1625.7 492.592 1647.06 503.767 1664.75 520.09C1682.44 536.413 1687.45 555.757 1680.19 587.981C1672.93 620.205 1651.6 667.891 1645.23 689.379C1638.87 710.867 1638.89 722.042 1617.55 728.912C1596.21 735.782 1575.81 736.221 1562.64 719.037C1549.47 701.854 1553.12 622.821 1563.55 593.129C1573.98 563.438 1583.06 551.031 1583.06 551.031Z" fill="#00955B" stroke="#003E26" stroke-linecap="round" stroke-linejoin="round"/>
<path d="M1584.85 720.135C1593.92 703.592 1621.15 585.719 1620.71 569.632C1620.27 553.546 1633.86 526.656 1650.58 524.394C1664.43 522.588 1675.48 535.282 1678.94 539.789C1684.36 552.55 1684.7 568.012 1680.09 588.741C1672.82 621.37 1661.72 669.646 1655.36 691.405C1649 713.163 1649.01 724.456 1627.68 731.427C1613.65 736.002 1589.78 737.757 1578.34 733.453C1580.2 728.868 1582.38 724.418 1584.85 720.135Z" fill="#007143" stroke="#003E26" stroke-linecap="round" stroke-linejoin="round"/>
<path d="M1620.93 624.307C1620.93 624.307 1610.19 691.017 1603.3 713.366C1596.42 735.715 1598.58 735.715 1586.98 736.576C1575.38 737.437 1135.25 736.204 1121.5 734.061C1107.74 731.917 1100.45 721.586 1096.58 707.053C1092.72 692.519 1088.85 626.147 1088.85 626.147L1602.44 624.459L1620.93 624.307Z" fill="#017D4B" stroke="#003E26" stroke-linecap="round" stroke-linejoin="round"/>
<path d="M1088.87 636.646C1089.85 639.025 1091.42 641.11 1093.45 642.698C1095.47 644.287 1097.87 645.324 1100.41 645.711C1109.5 647.399 1342.15 649.846 1349.56 649.846C1356.97 649.846 1546.74 649.846 1577.27 647.365C1607.81 644.884 1623.34 640.849 1620.93 624.307C1618.51 607.764 1619.34 620.931 1619.34 620.931L1083.92 627.565L1088.87 636.646Z" fill="#003E26"/>
<path d="M1123.22 549.596C1123.22 549.596 1090.17 571.945 1080.68 582.259C1071.19 592.572 1076.39 600.725 1077.31 608.473C1078.22 616.221 1082.03 633.388 1093.19 639.398C1104.35 645.407 1243.15 642.774 1323.94 645.424C1404.73 648.074 1578.39 644.934 1599.94 639.752C1621.5 634.57 1626.53 607.95 1627.81 592.91C1629.1 577.87 1613.68 556.821 1605.09 554.255C1596.5 551.689 1525.03 551.301 1445.54 553.023C1366.05 554.744 1329.63 561.665 1238.97 559.943C1148.3 558.222 1143.85 545.73 1123.22 549.596Z" fill="#00955B"/>
<mask id="mask0_43_400" style="mask-type:luminance" maskUnits="userSpaceOnUse" x="1075" y="548" width="553" height="99">
<path d="M1123.22 549.596C1123.22 549.596 1090.17 571.945 1080.68 582.259C1071.19 592.572 1076.39 600.725 1077.31 608.473C1078.22 616.221 1082.03 633.388 1093.19 639.398C1104.35 645.407 1243.15 642.774 1323.94 645.424C1404.73 648.074 1578.39 644.934 1599.94 639.752C1621.5 634.57 1626.53 607.95 1627.81 592.91C1629.1 577.87 1613.68 556.821 1605.09 554.255C1596.5 551.689 1525.03 551.301 1445.54 553.023C1366.05 554.744 1329.63 561.665 1238.97 559.943C1148.3 558.222 1143.85 545.73 1123.22 549.596Z" fill="white"/>
</mask>
<g mask="url(#mask0_43_400)">
<path d="M1077.25 608.473C1078.1 616.204 1081.98 633.388 1093.14 639.398C1104.3 645.407 1243.1 642.774 1323.89 645.424C1404.68 648.074 1578.39 644.934 1599.94 639.752C1621.5 634.57 1634.31 613.976 1635.59 598.936C1635.74 596.659 1635.49 594.374 1634.85 592.184C1631.81 595.206 1625.99 591.931 1619.09 590.952C1603.78 588.741 1442.69 598.767 1322.13 598.767C1191.21 598.767 1148.56 598.767 1083.77 586.31C1074.13 584.453 1080.75 582.208 1080.75 582.208C1071.23 592.572 1076.39 600.725 1077.25 608.473Z" fill="#017D4B"/>
</g>
<path d="M1123.22 549.596C1123.22 549.596 1090.17 571.945 1080.68 582.259C1071.19 592.572 1076.39 600.725 1077.31 608.473C1078.22 616.221 1082.03 633.388 1093.19 639.398C1104.35 645.407 1243.15 642.774 1323.94 645.424C1404.73 648.074 1578.39 644.934 1599.94 639.752C1621.5 634.57 1626.53 607.95 1627.81 592.91C1629.1 577.87 1613.68 556.821 1605.09 554.255C1596.5 551.689 1525.03 551.301 1445.54 553.023C1366.05 554.744 1329.63 561.665 1238.97 559.943C1148.3 558.222 1143.85 545.73 1123.22 549.596Z" stroke="#003E26" stroke-linecap="round" stroke-linejoin="round"/>
<path d="M1357.11 435.74L1356.43 557.496C1356.43 557.496 1351.12 590.8 1351.81 595.408C1352.5 600.017 1352.47 645.306 1352.47 645.306" stroke="#003E26" stroke-linecap="round" stroke-linejoin="round"/>
<path d="M1572.94 466.766C1578.12 465.968 1583.42 466.893 1588.03 469.399C1594.78 473.551 1605.77 487.14 1605.77 487.14L1617.47 454.68C1617.47 454.68 1612.18 444.872 1612.18 441.48C1612.18 438.087 1611.81 434.728 1611.81 433.175C1611.81 431.622 1615.19 430.153 1615.19 431.672C1615.42 433.705 1615.8 435.718 1616.32 437.698L1620.2 442.256L1622.46 423.401C1622.46 423.401 1624.34 421.139 1625.1 423.013C1625.85 424.886 1625.53 434.609 1625.53 434.609H1627.41L1629.2 419.333C1629.2 419.333 1629.74 418.607 1631.54 418.793C1631.76 418.785 1631.98 418.832 1632.17 418.929C1632.36 419.026 1632.53 419.17 1632.65 419.348C1632.78 419.526 1632.86 419.732 1632.88 419.947C1632.9 420.163 1632.87 420.381 1632.79 420.582L1631.54 434.981L1632.62 435.15L1635.63 421.865C1635.63 421.865 1636.89 420.616 1637.79 421.325C1638.38 421.963 1638.7 422.803 1638.68 423.671L1636.76 437.496L1641.03 429.596C1641.03 429.596 1642.82 428.887 1642.82 430.322C1641.52 435.091 1639.91 439.771 1638.01 444.332C1637.65 444.872 1630.82 457.448 1630.82 457.448C1630.82 457.448 1625.25 490.718 1622.73 497.96C1620.22 505.202 1614.82 511.616 1607.08 511.987C1599.35 512.359 1590.54 503.547 1590.54 503.547L1572.94 466.766Z" fill="white" stroke="#393939" stroke-linecap="round" stroke-linejoin="round"/>
<path d="M1624.39 452.941C1624.39 452.941 1625.7 447.084 1627.31 445.227C1628.76 443.832 1630.49 442.742 1632.37 442.02" stroke="#393939" stroke-linecap="round" stroke-linejoin="round"/>
<path d="M1547.62 453.92C1547.62 453.92 1546.87 464.487 1546.11 467.424C1545.35 470.361 1540.83 469.686 1536.68 469.686C1532.53 469.686 1531.02 476.438 1530.26 482.515C1529.5 488.592 1520.46 555.723 1521.96 565.227C1523.46 574.73 1539.33 584.858 1556.68 585.989C1574.03 587.12 1598.56 584.47 1608.38 576.925C1618.21 569.379 1619.32 563.421 1617.06 555.791C1614.8 548.161 1608.76 540.329 1605.73 536.936C1602.71 533.543 1599.69 529.391 1599.69 529.391C1599.69 529.391 1582.71 473.163 1578.56 469.011C1574.4 464.858 1566.12 466.749 1566.12 466.749L1563.47 452.772L1547.62 453.92Z" fill="#ECC424" stroke="#393939" stroke-linecap="round" stroke-linejoin="round"/>
<path d="M1531.85 558.728C1531.85 558.728 1549.69 519.448 1595.25 531.72" stroke="#393939" stroke-linecap="round" stroke-linejoin="round"/>
<path d="M1543.41 537.324C1543.41 537.324 1556.29 526.757 1570.15 527.095" stroke="#393939" stroke-linecap="round" stroke-linejoin="round"/>
<path d="M1569.44 466.361C1568.34 466.405 1567.23 466.54 1566.15 466.766L1563.5 452.789L1547.65 453.92C1547.65 453.92 1546.91 464.487 1546.15 467.424C1545.78 468.926 1544.46 469.483 1542.77 469.686C1544.04 473.062 1548.68 483.409 1559.36 484.034C1568.83 484.675 1569.66 472.64 1569.44 466.361Z" fill="white" stroke="#393939" stroke-linecap="round" stroke-linejoin="round"/>
<path d="M1546.89 462.512C1549.74 463.156 1552.66 463.506 1555.58 463.559C1558.88 463.632 1562.16 463.124 1565.27 462.056L1563.58 452.738L1547.73 453.869C1547.73 453.869 1547.33 458.545 1546.89 462.512Z" fill="#393939" stroke="#393939" stroke-linecap="round" stroke-linejoin="round"/>
<path d="M1587.66 390.536C1587.66 390.536 1600.11 381.471 1615.2 383.784C1630.29 386.096 1629.16 409.83 1623.51 416.244C1617.85 422.658 1604.27 418.506 1604.27 415.484C1604.27 412.463 1606.53 402.284 1600.89 396.916C1599.39 395.407 1597.51 394.329 1595.46 393.797C1593.4 393.266 1591.23 393.299 1589.19 393.895L1587.66 390.536Z" fill="#393939" stroke="#393939" stroke-linecap="round" stroke-linejoin="round"/>
<path d="M1527.36 418.084C1526.96 421.444 1526.83 424.831 1526.99 428.212C1527.36 431.993 1522.08 434.626 1525.47 441.041C1528.86 447.455 1536.8 458.41 1555.67 458.782C1574.54 459.153 1586.98 441.429 1586.98 424.819C1586.98 408.209 1566.18 395.431 1555.2 395.431C1544.21 395.431 1532.19 404.867 1529.88 408.648C1528.42 411.597 1527.57 414.804 1527.36 418.084Z" fill="white" stroke="#393939" stroke-linecap="round" stroke-linejoin="round"/>
<path d="M1549.17 432.128C1549.29 432.786 1549.21 433.467 1548.94 434.078C1548.66 434.688 1548.2 435.199 1547.63 435.54C1547.05 435.881 1546.38 436.036 1545.71 435.984C1545.05 435.931 1544.41 435.674 1543.89 435.247C1543.38 434.82 1543 434.244 1542.83 433.598C1542.65 432.952 1542.68 432.267 1542.9 431.636C1543.13 431.005 1543.54 430.46 1544.09 430.073C1544.64 429.687 1545.29 429.479 1545.96 429.478C1546.74 429.412 1547.51 429.652 1548.11 430.148C1548.71 430.643 1549.09 431.354 1549.17 432.128Z" stroke="#393939" stroke-linecap="round" stroke-linejoin="round"/>
<path d="M1540.1 438.087C1540.1 438.087 1544.65 443.37 1553.69 438.458" stroke="#393939" stroke-linecap="round" stroke-linejoin="round"/>
<path d="M1537.84 428.279C1539.09 428.279 1540.1 426.586 1540.1 424.498C1540.1 422.41 1539.09 420.717 1537.84 420.717C1536.59 420.717 1535.58 422.41 1535.58 424.498C1535.58 426.586 1536.59 428.279 1537.84 428.279Z" fill="#393939"/>
<path d="M1556.34 424.87C1556.34 426.963 1555.31 428.651 1554.06 428.651C1552.82 428.651 1551.8 426.963 1551.8 424.87C1551.8 422.776 1552.82 421.105 1554.06 421.105C1555.31 421.105 1556.34 422.793 1556.34 424.87Z" fill="#393939"/>
<path d="M1534.11 418.084C1535.07 417.087 1536.26 416.354 1537.59 415.958C1538.91 415.561 1540.31 415.514 1541.66 415.822" stroke="#393939" stroke-linecap="round" stroke-linejoin="round"/>
<path d="M1550.99 415.434C1550.99 415.434 1558.15 413.931 1560.41 420.346" stroke="#393939" stroke-linecap="round" stroke-linejoin="round"/>
<path d="M1550.67 397.71C1550.67 397.71 1561.24 421.105 1570.67 427.132C1580.11 433.158 1589.16 429.022 1590.68 425.629C1594.67 417.797 1595.48 408.725 1592.94 400.309C1589.16 387.48 1581.24 379.175 1568.78 379.935C1556.33 380.695 1541.99 390.873 1541.99 390.873L1550.67 397.71Z" fill="#393939" stroke="#393939" stroke-linecap="round" stroke-linejoin="round"/>
<path d="M1555.2 398.841C1555.2 398.841 1530.74 417.324 1526.14 421.105C1521.55 424.886 1515.58 422.608 1511.43 409.019C1507.27 395.431 1515.97 384.121 1527.66 384.121C1539.36 384.121 1552.56 391.616 1552.56 391.616" fill="#393939"/>
<path d="M1555.2 398.841C1555.2 398.841 1530.74 417.324 1526.14 421.105C1521.55 424.886 1515.58 422.608 1511.43 409.019C1507.27 395.431 1515.97 384.121 1527.66 384.121C1539.36 384.121 1552.56 391.616 1552.56 391.616" stroke="#393939" stroke-linecap="round" stroke-linejoin="round"/>
<path d="M1576.11 431.605C1576.11 431.605 1582.14 421.477 1587.81 422.169C1593.48 422.861 1590.44 436.888 1587.42 440.281C1584.4 443.674 1578.74 439.91 1578.74 439.91" fill="white"/>
<path d="M1576.11 431.605C1576.11 431.605 1582.14 421.477 1587.81 422.169C1593.48 422.861 1590.44 436.888 1587.42 440.281C1584.4 443.674 1578.74 439.91 1578.74 439.91" stroke="#393939" stroke-linecap="round" stroke-linejoin="round"/>
<path d="M1541.99 475.813C1541.75 474.841 1541.3 473.932 1540.67 473.145C1540.05 472.359 1539.26 471.713 1538.37 471.249C1537.48 470.786 1536.51 470.515 1535.5 470.455C1534.5 470.395 1533.5 470.547 1532.56 470.901C1525.01 473.18 1522.43 489.773 1520.49 500.34C1518.55 510.907 1506.53 570.915 1506.53 570.915C1506.53 570.915 1494.07 572.789 1488.79 574.291C1483.51 575.794 1487.66 576.553 1495.2 577.313C1502.75 578.073 1507.27 578.815 1507.27 578.815C1507.27 578.815 1498.98 582.968 1506.53 582.968C1514.08 582.968 1518.6 578.056 1519.36 576.216C1520.12 574.376 1540.49 498.095 1541.99 489.419C1543.5 480.742 1541.99 475.813 1541.99 475.813Z" fill="white" stroke="#393939" stroke-linecap="round" stroke-linejoin="round"/>
<path d="M1613.73 543.536C1613.73 543.536 1602.85 536.261 1591.62 543.857C1580.4 551.453 1588.97 572.249 1591.28 579.524C1593.6 586.799 1602.51 607.579 1606.81 618.146C1611.12 628.712 1614.73 645.154 1615.73 648.192C1616.72 651.23 1624.64 653.155 1627.93 652.496C1635.71 650.033 1643.24 646.822 1650.4 642.909C1654.35 640.275 1655.34 635.65 1653.03 634.654C1650.72 633.658 1627.93 633.996 1627.93 633.996C1627.93 633.996 1623.64 620.492 1622.99 610.229C1622.33 599.966 1618.36 570.274 1618.04 560.365C1617.72 550.457 1615.14 545.578 1613.73 543.536Z" fill="white" stroke="#393939" stroke-linecap="round" stroke-linejoin="round"/>
<path d="M1625.64 637.034C1625.6 638.19 1625.38 639.332 1624.96 640.41C1621.31 641.045 1617.61 641.412 1613.9 641.508C1614.76 644.884 1615.39 647.348 1615.73 648.26C1616.71 651.23 1624.64 653.222 1627.93 652.564C1635.71 650.1 1643.24 646.889 1650.4 642.976C1654.35 640.343 1655.34 635.718 1653.03 634.722C1650.72 633.726 1627.93 634.063 1627.93 634.063C1627.93 634.063 1625.64 635.397 1625.64 637.034Z" fill="#393939" stroke="#393939" stroke-linecap="round" stroke-linejoin="round"/>
<path d="M1596.25 647.28C1596.25 647.28 1593.53 647.281 1587.49 605.857C1584.84 587.728 1586.83 558.12 1579.89 548.212C1572.95 538.303 1551.19 541.291 1551.19 562.577C1551.19 583.862 1570.99 630.434 1576.51 643.803C1582.03 657.172 1583.45 665.595 1588.33 666.591C1593.21 667.587 1612.6 662.624 1620.03 657.679C1627.46 652.733 1628.94 645.863 1624 645.863C1619.05 645.863 1596.25 647.28 1596.25 647.28Z" fill="white" stroke="#393939" stroke-linecap="round" stroke-linejoin="round"/>
<path d="M1592.87 649.34C1592.53 650.184 1592.4 651.096 1592.49 652.001C1592.58 652.905 1592.88 653.776 1593.38 654.539C1594.31 655.552 1591.05 656.058 1581.11 656.227C1583.38 662.304 1585.14 666 1588.31 666.642C1593.28 667.638 1612.59 662.675 1620.01 657.729C1627.44 652.783 1628.93 645.913 1623.98 645.913C1619.04 645.913 1596.25 647.399 1596.25 647.399C1595.58 647.483 1594.94 647.699 1594.37 648.032C1593.79 648.365 1593.28 648.809 1592.87 649.34Z" fill="#393939" stroke="#393939" stroke-linecap="round" stroke-linejoin="round"/>
<path d="M1429.96 329.16C1429.64 321.487 1426.45 314.214 1421.02 308.786C1412.07 300.346 1392.2 298.354 1382.77 311.267C1373.33 324.18 1373.33 334.629 1376.81 337.11L1380.28 339.592C1380.28 339.592 1375.81 348.032 1380.77 352.016C1385.74 355.999 1389.72 359.966 1390.72 355.493C1391.71 351.02 1384.25 341.584 1395.68 334.123C1407.11 326.662 1429.96 329.16 1429.96 329.16Z" fill="#393939" stroke="#393939" stroke-linecap="round" stroke-linejoin="round"/>
<path d="M1424.49 318.694C1424.49 318.694 1439.4 306.271 1447.84 316.703C1456.28 327.134 1438.91 340.554 1436.43 342.023C1433.95 343.491 1424 323.151 1424 323.151C1424 323.151 1421.52 321.176 1424.49 318.694Z" fill="#393939" stroke="#393939" stroke-linecap="round" stroke-linejoin="round"/>
<path d="M1438.08 344.538C1438.08 344.538 1443.7 336.266 1446.67 343.204C1449.64 350.142 1443.3 359.747 1440.39 361.772C1437.49 363.798 1438.08 344.538 1438.08 344.538Z" fill="white" stroke="#393939" stroke-linecap="round" stroke-linejoin="round"/>
<path d="M1387.49 352.792C1387.49 352.792 1382.19 340.571 1378.56 345.854C1374.93 351.138 1378.9 365.03 1385.84 365.03C1386.74 363.603 1387.4 362.042 1387.81 360.405" fill="white"/>
<path d="M1387.49 352.792C1387.49 352.792 1382.19 340.571 1378.56 345.854C1374.93 351.138 1378.9 365.03 1385.84 365.03C1386.74 363.603 1387.4 362.042 1387.81 360.405" stroke="#393939" stroke-linecap="round" stroke-linejoin="round"/>
<path d="M1468.03 472.64C1462.24 457.347 1470.68 417.291 1457.49 410.961C1444.31 404.631 1425.88 402.521 1425.88 402.521L1410.58 403.078L1395.29 402.521C1395.29 402.521 1376.84 404.631 1363.66 410.961C1350.47 417.291 1358.91 457.347 1353.12 472.64C1347.33 487.933 1342.57 507.936 1344.68 520.596C1346.79 533.256 1354.17 537.982 1359.98 539.569C1363.96 540.65 1392.91 540.244 1410.62 539.89C1428.27 540.244 1457.22 540.65 1461.26 539.569C1467.05 537.982 1474.42 533.239 1476.53 520.596C1478.64 507.953 1473.83 487.832 1468.03 472.64Z" fill="#ECC424" stroke="#393939" stroke-linecap="round" stroke-linejoin="round"/>
<path d="M1376.77 477.907C1376.77 477.907 1413.62 459.744 1442.89 472.843" stroke="#393939" stroke-linecap="round" stroke-linejoin="round"/>
<path d="M1400.51 460.25C1400.51 460.25 1418.16 457.718 1430.28 464.284" stroke="#393939" stroke-linecap="round" stroke-linejoin="round"/>
<path d="M1402.45 392.798C1402.45 392.798 1392.2 396.174 1390.55 400.748C1388.89 405.323 1385.58 417.932 1385.92 423.553C1386.26 429.174 1389.55 432.145 1391.21 429.512C1392.86 426.878 1408.73 419.924 1410.72 418.928C1412.71 417.932 1424.93 421.578 1427.24 424.211C1429.56 426.845 1436.17 434.137 1437.17 431.487C1438.17 428.836 1437.17 416.936 1433.79 406.369C1430.42 395.802 1427.51 394.131 1421.56 392.477C1415.6 390.823 1402.45 392.798 1402.45 392.798Z" fill="white" stroke="#393939" stroke-linecap="round" stroke-linejoin="round"/>
<path d="M1398.73 392.139C1398.73 392.139 1399.39 408.682 1402.11 417.274C1404.83 425.866 1412.02 437.445 1415.33 435.842C1418.64 434.238 1422.28 418.962 1423.92 412.699C1425.21 406.477 1426.09 400.18 1426.57 393.844C1426.57 393.844 1403.02 395.448 1398.73 392.139Z" fill="white" stroke="#393939" stroke-linecap="round" stroke-linejoin="round"/>
<path d="M1426.5 393.793C1426.5 393.793 1403.02 395.481 1398.73 392.105C1398.73 392.105 1398.92 396.612 1399.46 402.149C1407.33 404.686 1415.68 405.3 1423.83 403.938C1424.41 403.82 1424.93 403.668 1425.52 403.533C1426.08 398.486 1426.5 393.793 1426.5 393.793Z" fill="#393939" stroke="#393939" stroke-linecap="round" stroke-linejoin="round"/>
<path d="M1387.07 336.402C1387.07 336.402 1381.45 380.847 1387.07 388.51C1392.69 396.174 1412.09 400.326 1423.83 397.693C1435.58 395.06 1441.2 387.565 1441.73 372.66C1442.25 357.755 1438.15 333.329 1433.03 329.768C1427.92 326.206 1415.16 321.581 1403.92 325.159C1392.67 328.738 1388.59 332.317 1387.07 336.402Z" fill="white" stroke="#393939" stroke-linecap="round" stroke-linejoin="round"/>
<path d="M1403.93 322.408C1403.93 322.408 1400.56 335.203 1392.49 339.288C1384.42 343.373 1386.43 332.536 1388.45 326.493" fill="#393939"/>
<path d="M1403.93 322.408C1403.93 322.408 1400.56 335.203 1392.49 339.288C1384.42 343.373 1386.43 332.536 1388.45 326.493" stroke="#393939" stroke-linecap="round" stroke-linejoin="round"/>
<path d="M1399.24 352.319C1399.24 352.319 1405 347.255 1409.37 351.644" stroke="#393939" stroke-linecap="round" stroke-linejoin="round"/>
<path d="M1421.3 351.29C1421.3 351.29 1426.05 344.842 1431.14 351.644" stroke="#393939" stroke-linecap="round" stroke-linejoin="round"/>
<path d="M1417.91 342.883L1419.89 364.709C1419.89 364.709 1413.94 367.68 1411.29 362.059" fill="white"/>
<path d="M1417.91 342.883L1419.89 364.709C1419.89 364.709 1413.94 367.68 1411.29 362.059" stroke="#393939" stroke-linecap="round" stroke-linejoin="round"/>
<path d="M1398.4 342.883C1401.86 340.545 1406.08 339.598 1410.21 340.233" stroke="#393939" stroke-linecap="round" stroke-linejoin="round"/>
<path d="M1418.57 340.571C1420.23 339.477 1422.16 338.866 1424.14 338.806C1426.13 338.747 1428.09 339.241 1429.81 340.233" stroke="#393939" stroke-linecap="round" stroke-linejoin="round"/>
<path d="M1413.28 364.372C1413.28 364.372 1399.6 366.971 1400.59 369.284C1401.59 371.596 1405.79 374.348 1409.76 374.044C1413.72 373.74 1416.59 368.98 1416.59 368.98C1416.59 368.98 1422.99 378.433 1431.48 370.28C1434.2 367.68 1419.88 364.692 1419.88 364.692C1419.88 364.692 1415.26 366.684 1413.28 364.372Z" fill="#393939"/>
<path d="M1467.12 526.538C1467.12 526.538 1466.1 517.642 1434.32 510.316C1402.53 502.99 1379.31 509.776 1368.69 517.642C1358.07 525.508 1351.52 530.724 1347.49 544.853C1343.45 558.981 1342.42 586.698 1374.24 594.024C1406.06 601.35 1456.5 600.253 1471.13 585.905C1494.75 562.779 1471.66 531.72 1467.12 526.538Z" fill="#393939" stroke="#393939" stroke-linecap="round" stroke-linejoin="round"/>
<path d="M1432.48 521.153C1432.48 521.153 1422.65 520.242 1419.83 519.617C1417.02 518.992 1407.29 524.327 1401.96 527.146C1397.9 529.602 1394.8 533.363 1393.16 537.814C1393.16 538.759 1392.24 543.452 1393.81 544.093C1395.38 544.734 1403.21 542.827 1405.4 542.827C1407.6 542.827 1419.83 539.063 1422.97 539.451C1426.11 539.839 1437.44 533.408 1437.44 533.408L1432.48 521.153Z" fill="white" stroke="#393939" stroke-linecap="round" stroke-linejoin="round"/>
<path d="M1419.53 534.674C1419.53 534.674 1410.74 535.619 1408.54 537.493C1406.16 539.258 1403.64 540.833 1401.01 542.202" stroke="#393939" stroke-linecap="round" stroke-linejoin="round"/>
<path d="M1415.77 530.032C1411.96 531.116 1408.28 532.587 1404.78 534.421C1401.49 536.945 1398.44 539.771 1395.68 542.861" stroke="#393939" stroke-linecap="round" stroke-linejoin="round"/>
<path d="M1413.88 525.896C1413.88 525.896 1401.64 530.285 1399.44 531.855C1397.22 533.696 1395.12 535.687 1393.16 537.814" stroke="#393939" stroke-linecap="round" stroke-linejoin="round"/>
<path d="M1457.11 408.85C1457.11 408.85 1472.4 411.484 1479.78 419.384C1487.15 427.283 1496.12 467.34 1500.34 482.633C1504.56 497.926 1506.67 520.883 1504.56 525.626C1502.45 530.37 1493.01 533.408 1485.16 533.408C1477.31 533.408 1436.07 534.303 1436.07 534.303L1430.28 521.643L1471.66 502.383L1461.26 442.053" fill="#ECC424"/>
<path d="M1457.11 408.85C1457.11 408.85 1472.4 411.484 1479.78 419.384C1487.15 427.283 1496.12 467.34 1500.34 482.633C1504.56 497.926 1506.67 520.883 1504.56 525.626C1502.45 530.37 1493.01 533.408 1485.16 533.408C1477.31 533.408 1436.07 534.303 1436.07 534.303L1430.28 521.643L1471.66 502.383L1461.26 442.053" stroke="#393939" stroke-linecap="round" stroke-linejoin="round"/>
<path d="M1369.99 408.85C1369.99 408.85 1354.69 411.484 1347.32 419.384C1339.94 427.283 1330.98 467.34 1326.77 482.633C1322.57 497.926 1320.14 517.372 1322.25 522.115C1324.36 526.859 1335.43 534.235 1343.33 534.235C1351.23 534.235 1389.75 533.34 1389.75 533.34L1394.72 521.153L1355.99 499.986L1365.77 442.053" fill="#ECC424"/>
<path d="M1369.99 408.85C1369.99 408.85 1354.69 411.484 1347.32 419.384C1339.94 427.283 1330.98 467.34 1326.77 482.633C1322.57 497.926 1320.14 517.372 1322.25 522.115C1324.36 526.859 1335.43 534.235 1343.33 534.235C1351.23 534.235 1389.75 533.34 1389.75 533.34L1394.72 521.153L1355.99 499.986L1365.77 442.053" stroke="#393939" stroke-linecap="round" stroke-linejoin="round"/>
<path d="M1394.72 521.153C1394.72 521.153 1404.52 520.242 1407.34 519.617C1410.16 518.992 1419.9 524.327 1425.24 527.146C1429.29 529.601 1432.39 533.363 1434.01 537.814C1434.01 538.759 1434.96 543.452 1433.39 544.093C1431.82 544.734 1423.97 542.827 1421.78 542.827C1419.58 542.827 1407.34 539.063 1404.2 539.451C1401.06 539.839 1389.75 533.408 1389.75 533.408L1394.72 521.153Z" fill="white" stroke="#393939" stroke-linecap="round" stroke-linejoin="round"/>
<path d="M1407.66 534.674C1407.66 534.674 1416.44 535.619 1418.64 537.493C1421.02 539.254 1423.54 540.829 1426.16 542.202" stroke="#393939" stroke-linecap="round" stroke-linejoin="round"/>
<path d="M1411.43 530.032C1415.23 531.115 1418.9 532.585 1422.4 534.421C1425.69 536.94 1428.74 539.766 1431.5 542.861" stroke="#393939" stroke-linecap="round" stroke-linejoin="round"/>
<path d="M1413.3 525.896C1413.3 525.896 1425.54 530.285 1427.73 531.855C1429.96 533.696 1432.06 535.687 1434.01 537.814" stroke="#393939" stroke-linecap="round" stroke-linejoin="round"/>
<path d="M1401.5 552.601C1401.5 552.601 1376.27 529.391 1355.08 528.884C1333.9 528.378 1321.32 543.519 1322.27 566.729C1323.21 589.939 1346.96 745.336 1346.96 745.336L1371.19 744.83L1377.28 568.248" fill="#393939"/>
<path d="M1401.5 552.601C1401.5 552.601 1376.27 529.391 1355.08 528.884C1333.9 528.378 1321.32 543.519 1322.27 566.729C1323.21 589.939 1346.96 745.336 1346.96 745.336L1371.19 744.83L1377.28 568.248" stroke="#393939" stroke-linecap="round" stroke-linejoin="round"/>
<path d="M1346.96 745.336C1346.96 745.336 1333.83 754.418 1330.3 765.018C1326.77 775.619 1346.96 772.598 1355.62 764.023C1361.37 758.08 1366.61 751.66 1371.27 744.83L1346.96 745.336Z" fill="white" stroke="#393939" stroke-linecap="round" stroke-linejoin="round"/>
<path d="M1422.15 552.601C1422.15 552.601 1447.38 529.391 1468.58 528.884C1489.79 528.378 1502.34 543.519 1501.38 566.729C1500.42 589.939 1467.52 745.336 1467.52 745.336L1443.3 744.83L1446.34 568.248" fill="#393939"/>
<path d="M1422.15 552.601C1422.15 552.601 1447.38 529.391 1468.58 528.884C1489.79 528.378 1502.34 543.519 1501.38 566.729C1500.42 589.939 1467.52 745.336 1467.52 745.336L1443.3 744.83L1446.34 568.248" stroke="#393939" stroke-linecap="round" stroke-linejoin="round"/>
<path d="M1467.52 745.336C1467.52 745.336 1480.65 754.418 1484.18 765.018C1487.71 775.619 1467.52 772.598 1458.95 764.023C1453.19 758.08 1447.96 751.66 1443.3 744.83L1467.52 745.336Z" fill="white" stroke="#393939" stroke-linecap="round" stroke-linejoin="round"/>
<path d="M1279.6 353.585C1279.6 353.585 1292.91 349.146 1294.96 341.297C1297 333.448 1289.5 307.132 1266.95 297.898C1244.4 288.665 1207.5 295.164 1194.86 309.529C1182.21 323.893 1195.55 337.195 1195.89 340.267C1196.23 343.339 1185.98 345.331 1184.27 358.379C1182.57 371.428 1199.31 384.678 1217.41 388.763C1235.5 392.848 1244.42 387.734 1244.42 380.897C1244.42 374.061 1240.32 367.916 1248.18 362.802C1256.05 357.687 1264.91 348.116 1268.67 348.454C1272.44 348.791 1279.6 353.585 1279.6 353.585Z" fill="#393939"/>
<mask id="mask1_43_400" style="mask-type:luminance" maskUnits="userSpaceOnUse" x="1184" y="293" width="112" height="98">
<path d="M1279.6 353.585C1279.6 353.585 1292.91 349.146 1294.96 341.297C1297 333.448 1289.5 307.132 1266.95 297.898C1244.4 288.665 1207.5 295.164 1194.86 309.529C1182.21 323.893 1195.55 337.195 1195.89 340.267C1196.23 343.339 1185.98 345.331 1184.27 358.379C1182.57 371.428 1199.31 384.678 1217.41 388.763C1235.5 392.848 1244.42 387.734 1244.42 380.897C1244.42 374.061 1240.32 367.916 1248.18 362.802C1256.05 357.687 1264.91 348.116 1268.67 348.454C1272.44 348.791 1279.6 353.585 1279.6 353.585Z" fill="white"/>
</mask>
<g mask="url(#mask1_43_400)">
<path d="M1250.85 311.267C1241.82 325.809 1228.13 336.872 1212.02 342.664C1185.57 351.762 1176.49 345.145 1176.49 345.145" stroke="#636363" stroke-linecap="round" stroke-linejoin="round"/>
<path d="M1238.44 305.528C1238.44 305.528 1213.66 338.579 1183.08 337.752" stroke="#636363" stroke-linecap="round" stroke-linejoin="round"/>
<path d="M1260.76 311.267C1260.76 311.267 1218.56 374.905 1168.2 374.905" stroke="#636363" stroke-linecap="round" stroke-linejoin="round"/>
<path d="M1243.4 300.464C1243.4 300.464 1285.37 322.492 1294.96 341.229" stroke="#636363" stroke-linecap="round" stroke-linejoin="round"/>
</g>
<path d="M1279.6 353.585C1279.6 353.585 1292.91 349.146 1294.96 341.297C1297 333.448 1289.5 307.132 1266.95 297.898C1244.4 288.665 1207.5 295.164 1194.86 309.529C1182.21 323.893 1195.55 337.195 1195.89 340.267C1196.23 343.339 1185.98 345.331 1184.27 358.379C1182.57 371.428 1199.31 384.678 1217.41 388.763C1235.5 392.848 1244.42 387.734 1244.42 380.897C1244.42 374.061 1240.32 367.916 1248.18 362.802C1256.05 357.687 1264.91 348.116 1268.67 348.454C1272.44 348.791 1279.6 353.585 1279.6 353.585Z" stroke="#393939" stroke-linecap="round" stroke-linejoin="round"/>
<path d="M1271.73 419.519C1271.73 419.519 1291.55 424.988 1300.76 437.968C1309.98 450.949 1317.85 482.042 1321.02 495.36C1324.19 508.679 1320.06 523.297 1310.89 528.074C1301.73 532.851 1286.55 514.57 1282.8 507.666C1279.06 500.762 1279.04 475.898 1276.05 459.153C1273.06 442.408 1266.83 421.578 1266.83 421.578C1266.83 421.578 1263.88 418.151 1271.73 419.519Z" fill="white" stroke="#393939" stroke-linecap="round" stroke-linejoin="round"/>
<path d="M1232.1 376.424C1232.1 376.424 1234.15 396.933 1232.1 401.373C1230.04 405.812 1222.54 410.927 1209.9 415.029C1197.25 419.13 1188.71 422.557 1181.88 434.17C1175.04 445.784 1167.56 504.746 1158.99 520.258C1150.24 536.092 1148.2 568.468 1168.93 584.538C1185.81 597.687 1245.09 596.1 1266.26 592.978C1287.43 589.855 1306.27 592.859 1312.07 578.174C1317.88 563.488 1305.89 538.658 1300.09 531.146C1294.28 523.634 1282.6 516.207 1282.6 516.207C1282.6 516.207 1289.89 503.547 1290.45 492.98C1291.48 473.838 1271.66 419.519 1271.66 419.519C1271.66 419.519 1259.71 414.455 1256.98 407.905C1254.24 401.356 1255.29 392.19 1255.29 392.19L1232.1 376.424Z" fill="#ECC424" stroke="#393939" stroke-linecap="round" stroke-linejoin="round"/>
<path d="M1199.99 536.109C1199.99 536.109 1234.83 537.628 1253.77 552.769" stroke="#393939" stroke-linecap="round" stroke-linejoin="round"/>
<path d="M1222.54 504.594C1222.54 504.594 1243.03 507.666 1262.16 500.492" stroke="#393939" stroke-linecap="round" stroke-linejoin="round"/>
<path d="M1246.11 507.666C1246.11 507.666 1259.78 505.624 1267.63 500.83" stroke="#393939" stroke-linecap="round" stroke-linejoin="round"/>
<path d="M1191.11 479.392C1198.62 474.953 1207.84 454.46 1209.56 438.053C1210.91 425.022 1207.74 418.472 1206.39 416.345C1195.65 419.991 1188.06 423.806 1181.88 434.306C1177.66 441.48 1172.14 466.276 1167.16 488.136C1173.89 488.17 1184.31 483.325 1191.11 479.392Z" fill="white" stroke="#393939" stroke-linecap="round" stroke-linejoin="round"/>
<path d="M1257.04 407.905C1254.31 401.423 1255.36 392.19 1255.36 392.19L1232.1 376.424C1232.1 376.424 1234.15 396.933 1232.1 401.373C1230.51 404.749 1225.63 408.665 1217.61 412.142C1219.03 418.405 1223.18 434.457 1229.71 440.99C1237.9 449.194 1253.62 450.899 1259.09 439.977C1264.56 429.056 1261.82 414.016 1261.82 414.016L1261.96 413.661C1259.88 412.16 1258.2 410.187 1257.04 407.905Z" fill="white" stroke="#393939" stroke-linecap="round" stroke-linejoin="round"/>
<path d="M1255.34 392.19L1235.17 378.551L1232.42 380.053C1232.62 382.636 1232.87 386.265 1232.97 389.877C1237.45 394.941 1243.93 401.204 1249.94 402.352C1251.81 402.711 1253.72 402.83 1255.63 402.706C1255.11 399.225 1255.02 395.694 1255.34 392.19Z" fill="#393939"/>
<path d="M1264.22 330.358C1264.22 330.358 1256.71 343.002 1244.74 349.484C1238.27 353.137 1231.39 356.005 1224.25 358.025C1224.25 358.025 1224.58 362.127 1222.88 362.127C1221.17 362.127 1217.41 355.982 1215.03 355.645C1212.65 355.307 1205.12 365.199 1207.84 369.301C1210.38 372.984 1213.95 375.837 1218.1 377.504C1221.48 378.872 1225.28 374.432 1225.28 374.432C1225.28 374.432 1251.57 406.504 1266.61 398.351C1281.65 390.198 1280.61 348.133 1280.61 348.133C1280.61 348.133 1277.2 338.9 1264.22 330.358Z" fill="white" stroke="#393939" stroke-linecap="round" stroke-linejoin="round"/>
<path d="M1254.14 357.012C1254.14 359.173 1253.14 360.928 1251.91 360.928C1250.68 360.928 1249.7 359.24 1249.7 357.012C1249.7 354.784 1250.7 353.079 1251.91 353.079C1253.13 353.079 1254.14 354.834 1254.14 357.012Z" fill="#393939"/>
<path d="M1275.32 354.953C1275.32 357.13 1274.33 358.886 1273.1 358.886C1271.86 358.886 1270.89 357.198 1270.89 354.953C1270.89 352.708 1271.86 351.036 1273.1 351.036C1274.33 351.036 1275.32 352.792 1275.32 354.953Z" fill="#393939"/>
<path d="M1267.29 351.205L1265.25 357.687C1265.25 357.687 1270.7 359.375 1270.7 362.481C1270.7 365.587 1265.64 366.921 1264.56 366.921" stroke="#393939" stroke-linecap="round" stroke-linejoin="round"/>
<path d="M1260.45 376.829C1261.56 377.417 1262.79 377.725 1264.04 377.725C1265.29 377.725 1266.52 377.417 1267.63 376.829" stroke="#393939" stroke-linecap="round" stroke-linejoin="round"/>
<path d="M1247.47 348.808C1247.47 348.808 1250.54 343.339 1256.35 344.707" stroke="#393939" stroke-linecap="round" stroke-linejoin="round"/>
<path d="M1270.36 345.736C1270.9 345.452 1271.48 345.28 1272.09 345.229C1272.69 345.178 1273.3 345.251 1273.87 345.442C1274.45 345.633 1274.98 345.938 1275.43 346.34C1275.88 346.742 1276.25 347.231 1276.51 347.779" stroke="#393939" stroke-linecap="round" stroke-linejoin="round"/>
<path d="M1259.42 532.074C1259.42 532.074 1271.05 533.982 1271.75 535.45C1272.44 536.919 1276.3 545.275 1275.26 547.722C1274.21 550.17 1272.1 546.676 1271.41 544.211C1270.72 541.747 1262.97 536.159 1262.97 536.159" fill="white"/>
<path d="M1259.42 532.074C1259.42 532.074 1271.05 533.982 1271.75 535.45C1272.44 536.919 1276.3 545.275 1275.26 547.722C1274.21 550.17 1272.1 546.676 1271.41 544.211C1270.72 541.747 1262.97 536.159 1262.97 536.159" stroke="#393939" stroke-linecap="round" stroke-linejoin="round"/>
<path d="M1257.38 532.277C1257.38 532.277 1267.24 535.332 1268.2 536.581C1270.24 539.232 1274.26 545.815 1273.27 548.262C1272.27 550.71 1270.9 549.241 1265.8 541.274C1264.43 539.522 1262.81 537.981 1260.99 536.7" fill="white"/>
<path d="M1257.38 532.277C1257.38 532.277 1267.24 535.332 1268.2 536.581C1270.24 539.232 1274.26 545.815 1273.27 548.262C1272.27 550.71 1270.9 549.241 1265.8 541.274C1264.43 539.522 1262.81 537.981 1260.99 536.7" stroke="#393939" stroke-linecap="round" stroke-linejoin="round"/>
<path d="M1204.61 416.261C1204.61 416.261 1181.59 420.666 1168.61 430.474C1155.63 440.281 1147.56 492.491 1146.19 505.117C1144.83 517.743 1143.39 529.644 1149.69 532.125C1155.98 534.606 1202.96 536.683 1212.41 536.683C1221.87 536.683 1248.16 540.16 1250.26 540.16C1252.35 540.16 1264.62 547.874 1266.73 549.984C1268.84 552.094 1269.15 548.161 1268.13 544.363C1266.77 539.299 1259.69 531.399 1250.97 528.597C1242.24 525.795 1227.49 527.196 1218.02 521.946C1208.55 516.697 1185.79 504.712 1182.28 504.054C1180.78 503.706 1179.26 503.475 1177.72 503.362C1177.72 503.362 1195.95 462.715 1197.69 456.756" fill="white"/>
<path d="M1204.61 416.261C1204.61 416.261 1181.59 420.666 1168.61 430.474C1155.63 440.281 1147.56 492.491 1146.19 505.117C1144.83 517.743 1143.39 529.644 1149.69 532.125C1155.98 534.606 1202.96 536.683 1212.41 536.683C1221.87 536.683 1248.16 540.16 1250.26 540.16C1252.35 540.16 1264.62 547.874 1266.73 549.984C1268.84 552.094 1269.15 548.161 1268.13 544.363C1266.77 539.299 1259.69 531.399 1250.97 528.597C1242.24 525.795 1227.49 527.196 1218.02 521.946C1208.55 516.697 1185.79 504.712 1182.28 504.054C1180.78 503.706 1179.26 503.475 1177.72 503.362C1177.72 503.362 1195.95 462.715 1197.69 456.756" stroke="#393939" stroke-linecap="round" stroke-linejoin="round"/>
<path d="M1258.33 538.742C1258.33 538.742 1266.77 544.701 1266.77 549.967" stroke="#393939" stroke-linecap="round" stroke-linejoin="round"/>
<path d="M1309.61 504.712C1302.08 502.833 1294.13 503.933 1287.39 507.784C1276.47 514.283 1270.31 520.427 1263.76 522.132C1257.21 523.837 1246.34 522.824 1238.14 526.234C1232.44 528.483 1226.63 530.421 1220.72 532.041C1216.62 533.408 1216.95 536.48 1220.03 536.48C1223.1 536.48 1227.2 536.143 1227.2 536.143C1227.2 536.143 1221.75 544.684 1221.75 547.418C1221.75 550.153 1229.93 550.491 1233.01 549.798C1236.08 549.106 1241.21 542.624 1242.92 541.949C1244.62 541.274 1251.12 542.287 1255.9 538.877C1260.67 535.467 1262.73 533.813 1262.73 533.813C1262.73 533.813 1282.21 539.957 1296.49 536.548C1310.77 533.138 1315.79 529.897 1319.89 515.211" fill="white"/>
<path d="M1309.61 504.712C1302.08 502.833 1294.13 503.933 1287.39 507.784C1276.47 514.283 1270.31 520.427 1263.76 522.132C1257.21 523.837 1246.34 522.824 1238.14 526.234C1232.44 528.483 1226.63 530.421 1220.72 532.041C1216.62 533.408 1216.95 536.48 1220.03 536.48C1223.1 536.48 1227.2 536.143 1227.2 536.143C1227.2 536.143 1221.75 544.684 1221.75 547.418C1221.75 550.153 1229.93 550.491 1233.01 549.798C1236.08 549.106 1241.21 542.624 1242.92 541.949C1244.62 541.274 1251.12 542.287 1255.9 538.877C1260.67 535.467 1262.73 533.813 1262.73 533.813C1262.73 533.813 1282.21 539.957 1296.49 536.548C1310.77 533.138 1315.79 529.897 1319.89 515.211" stroke="#393939" stroke-linecap="round" stroke-linejoin="round"/>
<path d="M1227.27 536.159C1229.21 533.86 1231.52 531.898 1234.1 530.353" stroke="#393939" stroke-linecap="round" stroke-linejoin="round"/>
<path d="M1224.2 548.448C1224.2 548.448 1230.36 536.835 1238.54 532.058" stroke="#393939" stroke-linecap="round" stroke-linejoin="round"/>
<path d="M1228.96 549.326C1228.96 549.326 1231.44 539.89 1242.65 534.134" stroke="#393939" stroke-linecap="round" stroke-linejoin="round"/>
<path d="M1233.07 549.815C1233.85 546.762 1235.39 543.959 1237.56 541.676C1239.73 539.394 1242.45 537.709 1245.46 536.784" stroke="#393939" stroke-linecap="round" stroke-linejoin="round"/>
<path d="M1301.61 559.572C1301.61 559.572 1286.41 552.516 1271.76 566.071C1257.11 579.625 1257.25 586.327 1237.73 614.061C1218.22 641.795 1190 692.705 1184.04 696.503C1178.08 700.301 1159.09 707.88 1155.34 719.274C1151.59 730.668 1157.03 733.926 1165.1 730.668C1173.17 727.41 1186.79 704.082 1188.97 702.461C1191.14 700.841 1237.24 663.958 1261.65 649.846C1286.06 635.735 1298.4 622.484 1308.16 598.075C1317.91 573.667 1310.28 561.193 1301.61 559.572Z" fill="white" stroke="#393939" stroke-linecap="round" stroke-linejoin="round"/>
<path d="M1188.54 702.833C1186.06 701.63 1183.97 699.738 1182.54 697.38C1175.41 701.398 1158.9 708.707 1155.29 719.324C1151.49 730.718 1156.98 733.976 1165.05 730.718C1172.88 727.528 1185.51 706.192 1188.54 702.833Z" fill="#393939" stroke="#393939" stroke-linecap="round" stroke-linejoin="round"/>
<path d="M1191.95 715.054C1191.95 715.054 1219.3 670.558 1236.65 642.892C1254.01 615.225 1262.16 598.43 1262.16 584.858C1262.16 584.858 1262.87 564.889 1246.97 564.788C1237.19 564.788 1218.76 570.763 1205.21 596.86C1191.65 622.956 1181.88 708.048 1180.26 712.927C1178.64 717.805 1178.57 748.189 1182.96 755.245C1187.35 762.301 1194.89 757.406 1195.43 742.214C1195.77 733.031 1194.59 723.855 1191.95 715.054Z" fill="white" stroke="#393939" stroke-linecap="round" stroke-linejoin="round"/>
<path d="M1179.87 714.682C1178.65 722.852 1179.01 748.729 1182.96 755.194C1187.31 762.233 1194.89 757.355 1195.43 742.163C1195.76 733.003 1194.59 723.851 1191.95 715.071C1191.95 715.071 1185.76 722.548 1179.87 714.682Z" fill="#393939" stroke="#393939" stroke-linecap="round" stroke-linejoin="round"/>
<g clip-path="url(#clip0_43_400)">
<mask id="mask2_43_400" style="mask-type:luminance" maskUnits="userSpaceOnUse" x="1080" y="124" width="466" height="147">
<path d="M1080 124H1545V271H1080V124Z" fill="white"/>
</mask>
<g mask="url(#mask2_43_400)">
<path d="M1323.42 162.593C1321.75 162.593 1320.76 162.873 1320.76 163.342C1320.76 163.888 1321.79 164.201 1323.58 164.201C1324.79 164.201 1325.96 163.886 1327.08 163.262C1325.74 162.818 1324.51 162.593 1323.42 162.593ZM1321.24 184.585C1325.1 184.585 1328.31 183.741 1330.78 182.077C1333.62 180.18 1335 177.492 1335 173.86C1335 169.541 1333.19 166.406 1329.48 164.286C1327.8 165.717 1325.74 166.442 1323.36 166.442C1322.28 166.442 1321.29 166.264 1320.43 165.913C1318.8 165.262 1318.45 164.215 1318.45 163.451C1318.45 162.037 1319.31 160.352 1323.42 160.352C1325.12 160.352 1327 160.769 1329.02 161.592C1330.03 160.313 1330.54 158.77 1330.54 157C1330.54 153.99 1329.39 151.783 1327.03 150.252C1324.99 148.944 1322.31 148.281 1319.06 148.281H1316.3V184.585H1321.24ZM1309.34 186.826L1309.36 186.248C1309.54 182.511 1309.64 179.291 1309.64 176.678V156.24C1309.64 153.629 1309.54 150.41 1309.36 146.672L1309.34 146.094H1318.25C1322.32 146.094 1325.65 146.85 1328.16 148.34C1331.34 150.208 1332.95 153.122 1332.95 157C1332.95 159.047 1332.31 160.943 1331.05 162.644C1335.24 165.185 1337.36 168.828 1337.36 173.48C1337.36 177.95 1335.69 181.402 1332.39 183.742C1329.55 185.787 1325.8 186.826 1321.24 186.826H1309.34Z" fill="#00402B"/>
<path d="M1348.57 176.035C1349.87 176.348 1351.33 176.507 1352.92 176.507C1357.56 176.507 1361.34 175.379 1364.17 173.156C1367.24 170.748 1368.8 167.282 1368.8 162.855C1368.8 157.564 1366.61 153.766 1362.11 151.246C1358.7 149.341 1354.14 148.345 1348.57 148.284V176.035ZM1341.61 186.826L1341.64 186.248C1341.82 182.508 1341.91 179.307 1341.91 176.733V156.186C1341.91 153.613 1341.82 150.412 1341.64 146.672L1341.61 146.094H1349.27C1355.15 146.094 1360.13 147.363 1364.05 149.868C1368.76 152.814 1371.16 157.185 1371.16 162.855C1371.16 167.922 1369.33 171.952 1365.73 174.832C1362.45 177.431 1358.15 178.748 1352.97 178.748C1351.37 178.748 1349.89 178.612 1348.57 178.345C1348.59 180.388 1348.68 183.041 1348.84 186.247L1348.87 186.826H1341.61Z" fill="#00402B"/>
<path d="M1395.1 186.934C1392.78 186.934 1389.33 186.916 1384.53 186.88C1379.9 186.844 1376.35 186.826 1373.98 186.826H1373.4L1373.43 186.247C1373.61 182.544 1373.7 179.708 1373.7 177.817V155.102C1373.7 153.213 1373.61 150.376 1373.43 146.672L1373.4 146.094H1391.72C1392.03 146.094 1392.49 146.067 1393.09 146.015C1393.73 145.958 1394.21 145.931 1394.55 145.931C1395.98 145.931 1396.09 146.893 1396.09 147.187C1396.09 147.482 1395.97 148.444 1394.5 148.444C1394.19 148.444 1393.74 148.416 1393.12 148.36C1392.54 148.307 1392.11 148.281 1391.83 148.281H1380.36V158.671C1382.21 158.667 1384.81 158.649 1388.1 158.617C1391.88 158.58 1394.59 158.562 1396.4 158.562C1397.78 158.562 1397.88 159.524 1397.88 159.819C1397.88 160.616 1397.17 161.021 1395.75 161.021C1395.48 161.021 1395.1 161.002 1394.62 160.965C1394.15 160.929 1393.81 160.912 1393.57 160.912H1380.36V184.584C1382.06 184.581 1384.44 184.563 1387.44 184.53C1390.93 184.494 1393.43 184.476 1395.1 184.476C1396.47 184.476 1396.58 185.438 1396.58 185.732C1396.58 186.014 1396.47 186.934 1395.1 186.934Z" fill="#00402B"/>
<path d="M1401.63 187.259C1401.33 187.259 1400.37 187.149 1400.37 185.732V147.187C1400.37 145.82 1401.33 145.714 1401.63 145.714C1402.4 145.714 1402.84 146.546 1402.99 146.819L1419.92 178.963L1437.01 146.605C1437.13 146.379 1437.5 145.714 1438.15 145.714C1438.96 145.714 1439.47 146.195 1439.47 146.97C1439.47 150.272 1439.42 155.151 1439.33 161.886C1439.24 168.439 1439.19 173.453 1439.19 176.787C1439.19 179.126 1439.29 182.309 1439.47 186.249L1439.49 186.826H1432.39L1432.43 186.242C1432.6 183.336 1432.72 174.283 1432.8 159.318C1428.12 168.216 1423.28 177.325 1418.39 186.426L1418.31 186.58L1418.15 186.659C1418.05 186.709 1417.93 186.756 1417.8 186.798L1417.59 186.869L1417.05 186.601L1416.97 186.497C1416.86 186.356 1416.62 186.027 1412.02 177.259L1402.78 159.582C1402.79 162.636 1402.81 166.657 1402.84 171.579C1402.87 178.079 1402.89 182.744 1402.89 185.841C1402.89 186.887 1402.24 187.259 1401.63 187.259Z" fill="#00402B"/>
<path d="M1457.34 176.128C1458.03 176.271 1458.74 176.344 1459.43 176.344C1460.33 176.344 1461.16 176.194 1461.89 175.897C1463.12 175.346 1463.12 174.676 1463.12 174.456C1463.12 174.137 1463.12 173.544 1461.72 173.544C1460.21 173.544 1458.74 174.412 1457.34 176.128ZM1443.92 187.259C1442.6 187.259 1442.5 186.381 1442.5 186.112C1442.5 185.386 1443.14 185.018 1444.41 185.018C1446.19 185.018 1447.89 184.376 1449.45 183.109C1450.95 181.888 1452.44 179.964 1453.86 177.384C1447.19 174.489 1443.8 169.603 1443.8 162.855C1443.8 157.222 1446.2 152.852 1450.92 149.866C1454.87 147.363 1459.86 146.094 1465.75 146.094H1473.08L1473.05 146.672C1472.87 150.389 1472.78 153.627 1472.78 156.295V176.679C1472.78 179.312 1472.87 182.531 1473.05 186.248L1473.08 186.826H1465.82L1465.85 186.249C1466.03 182.329 1466.12 179.09 1466.12 176.624V148.281H1465.75C1460.36 148.281 1455.86 149.383 1452.38 151.558C1448.19 154.149 1446.16 157.844 1446.16 162.855C1446.16 168.923 1449.08 173.035 1455.09 175.413C1457.09 172.685 1459.32 171.303 1461.72 171.303C1462.67 171.303 1463.51 171.568 1464.2 172.092C1464.94 172.652 1465.32 173.429 1465.32 174.402C1465.32 175.806 1464.62 176.899 1463.24 177.651C1462.14 178.236 1460.88 178.531 1459.49 178.531C1458.38 178.531 1457.23 178.38 1456.06 178.083C1454.51 180.826 1452.97 182.898 1451.48 184.243C1449.32 186.243 1446.77 187.259 1443.92 187.259Z" fill="#00402B"/>
<path d="M1336.81 252.26C1336.41 252.26 1335.49 252.095 1335.49 250.57C1335.49 250.369 1335.51 250.092 1335.55 249.725C1335.59 249.322 1335.6 249.136 1335.6 249.052V227.864H1316.29V241.733C1316.29 244.188 1316.39 247.408 1316.57 251.303L1316.59 251.88H1309.34L1309.36 251.302C1309.54 247.601 1309.64 244.747 1309.64 242.818V220.157C1309.64 218.301 1309.54 215.464 1309.36 211.726L1309.34 211.148H1316.59L1316.57 211.726C1316.39 215.515 1316.29 218.369 1316.29 220.211V225.623H1335.6C1335.59 224.105 1335.58 221.999 1335.54 219.215C1335.51 216.137 1335.49 213.791 1335.49 212.242C1335.49 211.319 1335.98 210.769 1336.81 210.769C1337.42 210.769 1338.07 211.142 1338.07 212.188V250.841C1338.07 251.887 1337.42 252.26 1336.81 252.26Z" fill="#645524"/>
<path d="M1362.93 212.468C1353.27 212.468 1348.57 218.849 1348.57 231.975C1348.57 237.34 1349.55 241.658 1351.48 244.806C1353.83 248.642 1357.39 250.506 1362.39 250.506C1367.44 250.506 1371.6 248.445 1374.74 244.379C1377.66 240.626 1379.14 236.053 1379.14 230.783C1379.14 225.877 1377.68 221.598 1374.8 218.065C1371.74 214.352 1367.74 212.468 1362.93 212.468ZM1361.95 252.748C1355.95 252.748 1350.95 250.786 1347.11 246.919C1343.26 243.054 1341.31 238.044 1341.31 232.029C1341.31 226.023 1343.29 220.835 1347.2 216.612C1351.12 212.375 1356.16 210.227 1362.17 210.227C1368 210.227 1372.78 212.259 1376.35 216.267C1379.8 220.073 1381.55 224.977 1381.55 230.836C1381.55 236.795 1379.83 241.911 1376.42 246.04C1372.73 250.491 1367.87 252.748 1361.95 252.748Z" fill="#645524"/>
<path d="M1423.89 252.26C1423.42 252.26 1423.02 251.876 1422.48 250.89C1421.76 249.488 1417.48 240.893 1409.75 225.324L1406.7 228.406V241.733C1406.7 244.185 1406.79 247.405 1406.97 251.303L1407 251.88H1399.74L1399.77 251.303C1399.95 247.46 1400.04 244.605 1400.04 242.818V228.406L1397 225.33C1394.17 231.163 1389.89 239.749 1384.27 250.872C1383.93 251.557 1383.49 252.26 1382.85 252.26C1381.88 252.26 1381.54 251.667 1381.54 251.112C1381.54 250.764 1381.73 250.349 1382.17 249.725C1382.62 248.979 1382.79 248.712 1382.87 248.598L1395.19 223.781L1385.99 214.14C1385.94 214.095 1385.73 213.908 1384.96 213.372C1384.13 212.798 1383.82 212.433 1383.82 212.025C1383.82 211.25 1384.28 210.769 1385.03 210.769C1385.42 210.769 1385.97 210.769 1393.21 218.145C1395.45 220.535 1397.74 222.95 1400.04 225.344V221.295C1400.04 218.861 1399.95 215.641 1399.77 211.725L1399.74 211.148H1407L1406.97 211.726C1406.79 215.517 1406.7 218.372 1406.7 220.211V225.345C1409.01 222.947 1411.32 220.532 1413.58 218.151C1420.77 210.769 1421.32 210.769 1421.71 210.769C1422.49 210.769 1422.97 211.25 1422.97 212.025C1422.97 212.431 1422.66 212.803 1421.81 213.397L1421.79 213.412L1421.77 213.425C1421.55 213.552 1421.2 213.803 1420.73 214.169L1411.55 223.781L1424 248.743C1424.06 248.847 1424.22 249.104 1424.63 249.727C1425.07 250.342 1425.26 250.762 1425.26 251.112C1425.26 251.667 1424.9 252.26 1423.89 252.26Z" fill="#645524"/>
<path d="M1455.51 252.26C1455.12 252.26 1454.2 252.095 1454.2 250.57C1454.2 250.366 1454.22 250.09 1454.26 249.725C1454.29 249.399 1454.31 249.172 1454.31 249.052V227.864H1435V241.733C1435 244.18 1435.09 247.4 1435.27 251.303L1435.3 251.88H1428.04L1428.07 251.302C1428.25 247.599 1428.34 244.744 1428.34 242.818V220.157C1428.34 218.303 1428.25 215.467 1428.07 211.726L1428.04 211.148H1435.3L1435.27 211.726C1435.09 215.522 1435 218.377 1435 220.211V225.623H1454.31C1454.3 224.12 1454.28 222.014 1454.25 219.215C1454.22 216.158 1454.2 213.812 1454.2 212.242C1454.2 211.319 1454.69 210.769 1455.51 210.769C1456.12 210.769 1456.77 211.142 1456.77 212.188V250.841C1456.77 251.887 1456.12 252.26 1455.51 252.26Z" fill="#645524"/>
<path d="M1489.8 252.314C1489.42 252.314 1488.54 252.155 1488.54 250.678C1488.54 250.473 1488.56 250.205 1488.6 249.858C1488.63 249.551 1488.65 249.334 1488.65 249.215V219.149L1464.56 234.231C1464.56 236.11 1464.58 238.848 1464.61 242.378V250.787C1464.61 252.154 1463.65 252.259 1463.35 252.259C1462.74 252.259 1462.09 251.901 1462.09 250.895V212.134C1462.09 211.127 1462.74 210.769 1463.35 210.769C1463.66 210.769 1464.67 210.887 1464.67 212.405C1464.67 214.073 1464.65 216.575 1464.61 220.054C1464.58 222.807 1464.56 225.016 1464.56 226.639L1487.14 212.495C1487.68 212.08 1488.51 211.54 1489.68 210.846L1489.81 210.769H1489.97C1491.06 210.769 1491.06 212.39 1491.06 213.001V250.787C1491.06 252.204 1490.1 252.314 1489.8 252.314Z" fill="#645524"/>
<path d="M1527.03 256.163C1526.64 256.163 1525.72 255.993 1525.72 254.419C1525.72 254.04 1525.73 253.51 1525.77 252.844C1525.79 252.469 1525.81 252.15 1525.81 251.88H1496.13L1496.16 251.302C1496.34 247.563 1496.43 244.689 1496.43 242.763V220.319C1496.43 218.322 1496.34 215.431 1496.16 211.726L1496.13 211.148H1503.39L1503.36 211.725C1503.18 215.63 1503.09 218.703 1503.09 220.862V249.639H1522.4V214.139C1522.4 213.983 1522.38 213.728 1522.34 213.38C1522.31 213.001 1522.29 212.717 1522.29 212.513C1522.29 210.939 1523.21 210.769 1523.6 210.769C1524.21 210.769 1524.86 211.142 1524.86 212.187C1524.86 214.898 1524.83 218.873 1524.75 224.338C1524.68 229.64 1524.65 233.724 1524.65 236.475C1524.65 241.332 1524.73 245.758 1524.89 249.639H1528.46L1528.4 250.246C1528.33 250.942 1528.29 252.456 1528.29 254.744C1528.29 255.79 1527.64 256.163 1527.03 256.163Z" fill="#645524"/>
</g>
</g>
<defs>
<linearGradient id="paint0_linear_43_400" x1="958.5" y1="22" x2="958.5" y2="835" gradientUnits="userSpaceOnUse">
<stop stop-color="#EDE6CD"/>
<stop offset="1" stop-color="#EDE6CD" stop-opacity="0"/>
</linearGradient>
<clipPath id="clip0_43_400">
<rect width="465" height="147" fill="white" transform="translate(1080 124)"/>
</clipPath>
</defs>
</svg>
