<svg width="844" height="844" viewBox="0 0 844 844" fill="none" xmlns="http://www.w3.org/2000/svg">
<path d="M775.248 438.964C775.248 438.964 770.184 571.27 659.299 657.257C548.414 743.243 395.65 746.467 271.92 752.325C148.189 758.182 53.6446 686.071 40.0225 579.693C26.4003 473.315 121.046 444.096 173.172 324.383C225.297 204.67 220.925 164.867 329.903 92.84C438.88 20.813 608.305 69.7988 696.469 198.863C784.633 327.928 775.248 438.964 775.248 438.964Z" fill="#C3AC58"/>
<path opacity="0.7" d="M775.248 438.964C775.248 438.964 770.184 571.27 659.299 657.257C548.414 743.243 395.65 746.467 271.92 752.325C148.189 758.182 53.6446 686.071 40.0225 579.693C26.4003 473.315 121.046 444.096 173.172 324.383C225.297 204.67 220.925 164.867 329.903 92.84C438.88 20.813 608.305 69.7988 696.469 198.863C784.633 327.928 775.248 438.964 775.248 438.964Z" fill="white"/>
<path d="M423.722 801.108C638.113 801.108 811.911 766.442 811.911 723.679C811.911 680.917 638.113 646.251 423.722 646.251C209.331 646.251 35.5324 680.917 35.5324 723.679C35.5324 766.442 209.331 801.108 423.722 801.108Z" fill="#C3AC58"/>
<path opacity="0.5" d="M423.722 801.108C638.113 801.108 811.911 766.442 811.911 723.679C811.911 680.917 638.113 646.251 423.722 646.251C209.331 646.251 35.5324 680.917 35.5324 723.679C35.5324 766.442 209.331 801.108 423.722 801.108Z" fill="white"/>
<path d="M750.147 653.509C750.147 653.509 788.853 585.179 797.867 553.664C806.881 522.149 772.969 546.912 772.969 546.912C772.969 546.912 813.228 480.388 816.351 436.618C819.473 392.848 773.29 447.084 773.29 447.084C773.29 447.084 789.157 390.688 792.617 341.854C796.078 293.02 774.049 316.838 774.049 316.838C774.049 316.838 772.209 223.643 759.701 232.893C747.193 242.144 741.673 272.241 741.673 272.241C741.673 272.241 734.668 180.346 724.456 205.008C714.243 229.669 730.398 359.426 730.398 359.426C730.398 359.426 706.445 291.72 700.571 326.847C694.696 361.975 738.483 459.845 738.483 459.845C738.483 459.845 716.235 463.339 713.484 478.413C710.732 493.487 746.096 568.603 746.096 568.603C746.096 568.603 716.742 529.289 711.458 555.977C706.175 582.664 735.9 664.329 735.9 664.329L750.147 653.509Z" fill="#007143"/>
<path d="M793.63 517.828C788.228 498.838 773.796 511.346 773.796 511.346C773.796 511.346 804.433 413.678 791.436 405.981C778.438 398.284 767.517 432.989 767.517 432.989C767.517 432.989 783.232 283.5 774.269 291.315C765.305 299.13 760.106 347.846 760.106 347.846C760.106 347.846 749.472 211.776 737.656 234.632C725.84 257.488 739.749 395.549 739.749 395.549C739.749 395.549 717.603 326.341 715.459 356.59C713.315 386.839 736.66 486.701 736.66 486.701C736.66 486.701 710.192 478.058 710.8 493.318C711.408 508.578 726.701 579.068 726.701 579.068C726.701 579.068 710.344 571.135 714.311 586.648C718.278 602.16 736.947 649.104 736.947 649.104L756.798 655.585C756.798 655.585 785.494 608.558 773.678 609.402C770.292 609.573 766.98 610.454 763.956 611.986C760.932 613.519 758.263 615.669 756.123 618.298C756.123 618.298 799.049 536.784 793.63 517.828Z" stroke="#393939" stroke-linecap="round" stroke-linejoin="round"/>
<path d="M746.822 647.28C746.822 647.28 755.532 491.495 751.886 392.899" stroke="#393939" stroke-linecap="round" stroke-linejoin="round"/>
<path d="M763.128 719.088H726.211L721.873 639.752H767.449L763.128 719.088Z" fill="#393939" stroke="#393939" stroke-linecap="round" stroke-linejoin="round"/>
<path d="M196.871 292.108C201.966 293.132 206.786 295.22 211.017 298.236C216.925 302.793 238.481 337.887 246.465 345.5C254.449 353.113 263.919 362.481 260.627 370.026C257.336 377.572 252.187 390.789 237.974 385.218C223.761 379.648 219.946 372.44 216.165 365.84C212.384 359.24 200.129 349.332 200.129 349.332" fill="#ECC424"/>
<path d="M196.871 292.108C201.966 293.132 206.786 295.22 211.017 298.236C216.925 302.793 238.481 337.887 246.465 345.5C254.449 353.113 263.919 362.481 260.627 370.026C257.336 377.572 252.187 390.789 237.974 385.218C223.761 379.648 219.946 372.44 216.165 365.84C212.384 359.24 200.129 349.332 200.129 349.332" stroke="#393939" stroke-linecap="round" stroke-linejoin="round"/>
<path d="M255.377 364.405C245.368 353.569 236.523 361.671 230.615 370.989C224.048 381.37 218.208 392.207 212.401 403.061C212.401 403.061 203.657 411.366 203.218 415.299C202.779 419.232 209.768 429.714 213.346 429.292C216.925 428.87 223.846 426.659 224.285 424.481C224.723 422.304 221.229 422.793 221.229 422.793L223.846 418.86L222.158 409.526C233.653 399.735 251.444 384.493 256.424 379.496C260.999 374.82 259.378 368.744 255.377 364.405Z" fill="white" stroke="#393939" stroke-linecap="round" stroke-linejoin="round"/>
<path d="M133.96 427.705C133.96 427.705 129.335 447.506 131.309 453.464C133.284 459.423 140.475 474.109 140.475 474.109L155.431 664.38L171.602 663.975L178.928 463.71L182.203 463.322L188.026 663.975L204.687 664.633L215.912 470.631C215.912 470.631 217.6 445.548 217.6 442.897C217.6 440.247 213.228 415.889 213.228 415.889L133.96 427.705Z" fill="#393939" stroke="#393939" stroke-linecap="round" stroke-linejoin="round"/>
<path d="M155.431 664.38C155.431 664.38 136.238 680.264 135.833 685.666C135.428 691.067 151.262 688.586 157.929 680.602C164.597 672.617 170.977 674.761 171.281 669.343L171.602 663.924L155.431 664.38Z" fill="white" stroke="#393939" stroke-linecap="round" stroke-linejoin="round"/>
<path d="M204.13 664.38C204.13 664.38 223.322 680.247 223.744 685.666C224.166 691.084 208.299 688.586 201.632 680.602C194.964 672.617 188.6 674.761 188.279 669.343L187.959 663.924L204.13 664.38Z" fill="white" stroke="#393939" stroke-linecap="round" stroke-linejoin="round"/>
<path d="M203.471 316.162L201.581 293.999C189.309 288.8 167.517 288.091 161.069 290.623C161.069 290.623 123.815 309.495 120.034 313.276C116.253 317.057 103.474 373.706 103.474 383.176C103.474 392.646 108.673 399.212 118.092 401.103C127.511 402.993 133.673 391.194 133.673 391.194C133.673 391.194 128.474 419.89 129.419 423.266C130.364 426.642 132.12 431.453 135.884 431.925C139.648 432.398 208.654 429.393 211.489 427.976C214.325 426.558 216.199 423.739 216.199 417.139C216.199 410.538 206.763 343.559 206.763 343.559" fill="#ECC424"/>
<path d="M203.471 316.162L201.581 293.999C189.309 288.8 167.517 288.091 161.069 290.623C161.069 290.623 123.815 309.495 120.034 313.276C116.253 317.057 103.474 373.706 103.474 383.176C103.474 392.646 108.673 399.212 118.092 401.103C127.511 402.993 133.673 391.194 133.673 391.194C133.673 391.194 128.474 419.89 129.419 423.266C130.364 426.642 132.12 431.453 135.884 431.925C139.648 432.398 208.654 429.393 211.489 427.976C214.325 426.558 216.199 423.739 216.199 417.139C216.199 410.538 206.763 343.559 206.763 343.559" stroke="#393939" stroke-linecap="round" stroke-linejoin="round"/>
<path d="M135.462 355.071L135.074 337.397" stroke="#393939" stroke-linecap="round" stroke-linejoin="round"/>
<path d="M169.273 327.962C178.782 327.962 186.49 319.512 186.49 309.09C186.49 298.667 178.782 290.218 169.273 290.218C159.764 290.218 152.055 298.667 152.055 309.09C152.055 319.512 159.764 327.962 169.273 327.962Z" fill="white" stroke="#393939" stroke-linecap="round" stroke-linejoin="round"/>
<path d="M158.182 276.072C158.182 276.072 158.182 310.035 161.558 316.162C164.934 322.29 177.122 324.18 178.067 316.162C179.012 308.144 178.54 278.908 178.54 278.908L158.182 276.072Z" fill="white" stroke="#393939" stroke-linecap="round" stroke-linejoin="round"/>
<path d="M178.59 292.463C178.59 285.036 178.472 278.959 178.472 278.959L158.216 276.123C158.216 276.123 158.216 281.525 158.436 288.412C161.238 290.627 164.525 292.149 168.027 292.853C171.53 293.557 175.149 293.423 178.59 292.463Z" fill="#393939" stroke="#393939" stroke-linecap="round" stroke-linejoin="round"/>
<path d="M192.145 212.401C192.145 212.401 195.521 246.836 196.399 256.745C197.277 266.653 193.563 278.908 180.835 283.618C168.108 288.327 157.727 281.744 151.11 272.781C144.493 263.818 142.67 263.345 142.67 263.345C141.618 263.6 140.525 263.643 139.456 263.473C138.387 263.302 137.362 262.921 136.442 262.35C135.522 261.78 134.724 261.033 134.095 260.152C133.466 259.271 133.018 258.273 132.778 257.217C130.415 249.199 137.015 245.891 142.197 244.473C142.197 244.473 133.757 225.145 133.757 219.946C133.757 214.747 142.704 203.91 161.575 199.201C180.447 194.491 192.145 212.401 192.145 212.401Z" fill="white" stroke="#393939" stroke-linecap="round" stroke-linejoin="round"/>
<path d="M177.054 232.691L177.527 240.236C177.527 240.236 188.381 241.181 184.6 244.473C181.662 246.722 178.287 248.331 174.691 249.199" stroke="#393939" stroke-linecap="round" stroke-linejoin="round"/>
<path d="M159.6 259.091C161.382 260.818 163.57 262.07 165.962 262.731C168.354 263.391 170.874 263.44 173.29 262.872" stroke="#393939" stroke-linecap="round" stroke-linejoin="round"/>
<path d="M165.272 238.818C165.272 241.03 164.209 242.819 162.909 242.819C161.609 242.819 160.546 241.03 160.546 238.818C160.546 236.607 161.609 234.801 162.909 234.801C164.209 234.801 165.272 236.607 165.272 238.818Z" fill="#393939"/>
<path d="M183.182 238.582C184.487 238.582 185.545 236.783 185.545 234.564C185.545 232.346 184.487 230.547 183.182 230.547C181.877 230.547 180.819 232.346 180.819 234.564C180.819 236.783 181.877 238.582 183.182 238.582Z" fill="#393939"/>
<path d="M153.946 231.746C153.946 231.746 158.182 226.074 167.618 226.547" stroke="#393939" stroke-linecap="round" stroke-linejoin="round"/>
<path d="M175.636 221.364C176.184 219.265 177.519 217.458 179.364 216.317C181.209 215.176 183.422 214.789 185.545 215.237" stroke="#393939" stroke-linecap="round" stroke-linejoin="round"/>
<path d="M137.437 244.473C137.437 244.473 144.51 252.018 146.873 248.254C149.236 244.49 146.873 237.873 147.345 232.691C147.818 227.509 153.473 227.964 151.582 223.728C149.692 219.491 143.142 224.2 143.142 219.474C143.142 214.747 155.887 207.219 168.142 207.219C180.397 207.219 193.614 219.035 204.467 213.819C215.321 208.603 211.067 197.31 204.94 192.128C198.813 186.946 186.541 187.402 186.541 187.402C186.541 187.402 201.632 182.692 196.449 177.966C191.267 173.239 178.05 172.784 170.977 175.62C163.905 178.455 156.309 182.304 156.309 182.304C156.309 182.304 162.436 172.395 153.946 176.649C150.615 178.211 147.641 180.44 145.208 183.199C142.775 185.957 140.934 189.186 139.8 192.685C137.437 198.813 135.546 203.05 135.546 203.05C135.546 203.05 129.892 198.813 125.655 200.703C121.418 202.594 129.031 204.079 129.031 204.079C129.031 204.079 119.122 209.751 120.591 217.296C122.059 224.842 130.972 235.679 133.335 237.096C135.698 238.514 137.437 244.473 137.437 244.473Z" fill="#393939" stroke="#393939" stroke-linecap="round" stroke-linejoin="round"/>
<path d="M185.545 323.235V303.435C185.545 301.544 197.817 300.599 197.817 300.599L198.272 303.435L193.09 306.254L196.601 314.086C196.601 314.086 214.308 302.49 216.199 304.853C216.95 305.991 217.311 307.343 217.225 308.705C217.14 310.066 216.614 311.362 215.726 312.398C214.79 313.472 214.145 314.768 213.853 316.162C213.853 316.162 214.308 328.907 211.017 330.308C207.725 331.709 190.254 336.452 190.254 336.452C176.43 352.826 162.453 369.368 145.826 383.024C139.074 388.594 130.989 397.997 122.346 392.713C114.041 387.649 114.244 374.905 119.51 368.051C128.946 355.78 141.454 353.417 153.979 346.462C165.293 339.858 175.874 332.072 185.545 323.235Z" fill="white" stroke="#393939" stroke-linecap="round" stroke-linejoin="round"/>
<path d="M196.601 314.086L199.977 283.196C200.048 282.292 200.451 281.447 201.109 280.823C201.767 280.2 202.633 279.842 203.539 279.82L214.815 279.01C215.309 278.998 215.801 279.087 216.261 279.27C216.72 279.453 217.138 279.726 217.49 280.075C217.841 280.423 218.119 280.838 218.306 281.296C218.493 281.754 218.586 282.245 218.579 282.74L216.216 304.92L196.601 314.086Z" fill="#393939" stroke="#393939" stroke-linecap="round" stroke-linejoin="round"/>
<path d="M663.89 565.868C663.89 565.868 673.343 542.236 667.266 493.284C664.616 471.779 666.507 427.604 637.102 426.169C605.722 424.65 592.91 427.756 561.463 428.111C448.029 429.41 364.608 440.72 295.451 434.052C239.865 428.685 191.909 419.873 172.227 439.64C152.545 459.406 154.182 501.505 155.904 509.675C157.625 517.845 170.488 573.667 170.488 573.667L660.886 571.456L663.89 565.868Z" fill="#017D4B" stroke="#003E26" stroke-linecap="round" stroke-linejoin="round"/>
<path d="M176.936 551.757C176.936 551.757 167.483 513.945 152.004 503.632C136.525 493.318 116.354 504.493 99.6764 520.816C82.9989 537.138 78.1882 556.483 85.0752 588.707C91.9622 620.931 112.083 668.617 118.16 690.105C124.237 711.593 124.169 722.768 144.358 729.638C164.546 736.508 183.891 736.947 196.348 719.746C208.806 702.546 205.379 623.53 195.487 593.855C185.596 564.18 176.936 551.757 176.936 551.757Z" fill="#00955B" stroke="#003E26" stroke-linecap="round" stroke-linejoin="round"/>
<path d="M175.214 718.463C166.622 702.208 140.847 585.736 141.269 569.801C141.691 553.867 128.811 527.264 112.91 525.103C99.8114 523.415 89.2783 535.872 86.0542 540.295C80.9902 552.904 80.6189 568.181 84.9908 588.673C91.861 620.897 91.0001 669.579 97.0094 691.067C103.019 712.555 102.968 723.764 123.224 730.634C136.509 735.158 170.488 735.884 181.308 731.647C179.582 727.117 177.546 722.713 175.214 718.463Z" fill="#007143" stroke="#003E26" stroke-linecap="round" stroke-linejoin="round"/>
<path d="M638.064 551.031C638.064 551.031 648.057 513.219 664.38 502.906C680.703 492.592 702.056 503.767 719.746 520.09C737.437 536.413 742.45 555.757 735.192 587.981C727.933 620.205 706.597 667.891 700.233 689.379C693.869 710.867 693.886 722.042 672.55 728.912C651.213 735.782 630.806 736.221 617.639 719.037C604.473 701.854 608.119 622.821 618.551 593.129C628.983 563.438 638.064 551.031 638.064 551.031Z" fill="#00955B" stroke="#003E26" stroke-linecap="round" stroke-linejoin="round"/>
<path d="M639.853 720.135C648.918 703.592 676.145 585.719 675.706 569.632C675.268 553.546 688.856 526.656 705.584 524.394C719.426 522.588 730.482 535.282 733.942 539.789C739.361 552.55 739.699 568.012 735.09 588.741C727.815 621.37 716.725 669.646 710.361 691.405C703.997 713.163 704.014 724.456 682.678 731.427C668.651 736.002 644.782 737.757 633.338 733.453C635.199 728.868 637.376 724.418 639.853 720.135Z" fill="#007143" stroke="#003E26" stroke-linecap="round" stroke-linejoin="round"/>
<path d="M675.926 624.307C675.926 624.307 665.19 691.017 658.303 713.366C651.416 735.715 653.577 735.715 641.98 736.576C630.384 737.437 190.254 736.204 176.497 734.061C162.74 731.917 155.448 721.586 151.582 707.053C147.717 692.519 143.851 626.147 143.851 626.147L657.442 624.459L675.926 624.307Z" fill="#017D4B" stroke="#003E26" stroke-linecap="round" stroke-linejoin="round"/>
<path d="M143.868 636.646C144.847 639.025 146.425 641.11 148.448 642.698C150.471 644.287 152.871 645.324 155.414 645.711C164.496 647.399 397.153 649.846 404.563 649.846C411.973 649.846 601.738 649.846 632.274 647.365C662.81 644.884 678.34 640.849 675.926 624.307C673.512 607.764 674.339 620.931 674.339 620.931L138.922 627.565L143.868 636.646Z" fill="#003E26"/>
<path d="M178.219 549.596C178.219 549.596 145.168 571.945 135.681 582.259C126.195 592.572 131.394 600.725 132.305 608.473C133.217 616.221 137.032 633.388 148.19 639.398C159.347 645.407 298.151 642.774 378.939 645.424C459.727 648.074 633.388 644.934 654.944 639.752C676.5 634.57 681.53 607.95 682.813 592.91C684.096 577.87 668.684 556.821 660.092 554.255C651.5 551.689 580.031 551.301 500.543 553.023C421.055 554.744 384.628 561.665 293.965 559.943C203.303 558.222 198.846 545.73 178.219 549.596Z" fill="#00955B"/>
<mask id="mask0_37_3" style="mask-type:luminance" maskUnits="userSpaceOnUse" x="130" y="548" width="553" height="99">
<path d="M178.219 549.596C178.219 549.596 145.168 571.945 135.681 582.259C126.195 592.572 131.394 600.725 132.305 608.473C133.217 616.221 137.032 633.388 148.19 639.398C159.347 645.407 298.151 642.774 378.939 645.424C459.727 648.074 633.388 644.934 654.944 639.752C676.5 634.57 681.53 607.95 682.813 592.91C684.096 577.87 668.684 556.821 660.092 554.255C651.5 551.689 580.031 551.301 500.543 553.023C421.055 554.744 384.628 561.665 293.965 559.943C203.303 558.222 198.846 545.73 178.219 549.596Z" fill="white"/>
</mask>
<g mask="url(#mask0_37_3)">
<path d="M132.255 608.473C133.099 616.204 136.981 633.388 148.139 639.398C159.297 645.407 298.101 642.774 378.888 645.424C459.676 648.074 633.388 644.934 654.944 639.752C676.5 634.57 689.312 613.976 690.594 598.936C690.743 596.659 690.492 594.374 689.852 592.184C686.813 595.206 680.99 591.931 674.086 590.952C658.776 588.741 497.69 598.767 377.133 598.767C246.212 598.767 203.556 598.767 138.77 586.31C129.132 584.453 135.749 582.208 135.749 582.208C126.229 592.572 131.394 600.725 132.255 608.473Z" fill="#017D4B"/>
</g>
<path d="M178.219 549.596C178.219 549.596 145.168 571.945 135.681 582.259C126.195 592.572 131.394 600.725 132.305 608.473C133.217 616.221 137.032 633.388 148.19 639.398C159.347 645.407 298.151 642.774 378.939 645.424C459.727 648.074 633.388 644.934 654.944 639.752C676.5 634.57 681.53 607.95 682.813 592.91C684.096 577.87 668.684 556.821 660.092 554.255C651.5 551.689 580.031 551.301 500.543 553.023C421.055 554.744 384.628 561.665 293.965 559.943C203.303 558.222 198.846 545.73 178.219 549.596Z" stroke="#003E26" stroke-linecap="round" stroke-linejoin="round"/>
<path d="M412.108 435.74L411.433 557.496C411.433 557.496 406.116 590.8 406.808 595.408C407.5 600.017 407.466 645.306 407.466 645.306" stroke="#003E26" stroke-linecap="round" stroke-linejoin="round"/>
<path d="M627.936 466.766C633.119 465.968 638.42 466.893 643.027 469.399C649.779 473.551 660.768 487.14 660.768 487.14L672.465 454.68C672.465 454.68 667.182 444.872 667.182 441.48C667.182 438.087 666.811 434.728 666.811 433.175C666.811 431.622 670.187 430.153 670.187 431.672C670.423 433.705 670.801 435.718 671.318 437.698L675.2 442.256L677.462 423.401C677.462 423.401 679.336 421.139 680.095 423.013C680.855 424.886 680.534 434.609 680.534 434.609H682.408L684.197 419.333C684.197 419.333 684.737 418.607 686.543 418.793C686.76 418.785 686.975 418.832 687.17 418.929C687.364 419.026 687.53 419.17 687.655 419.348C687.779 419.526 687.856 419.732 687.88 419.947C687.905 420.163 687.874 420.381 687.792 420.582L686.543 434.981L687.624 435.15L690.628 421.865C690.628 421.865 691.894 420.616 692.789 421.325C693.378 421.963 693.698 422.803 693.684 423.671L691.759 437.496L696.03 429.596C696.03 429.596 697.819 428.887 697.819 430.322C696.521 435.091 694.914 439.771 693.008 444.332C692.654 444.872 685.818 457.448 685.818 457.448C685.818 457.448 680.247 490.718 677.732 497.96C675.217 505.202 669.815 511.616 662.084 511.987C654.353 512.359 645.542 503.547 645.542 503.547L627.936 466.766Z" fill="white" stroke="#393939" stroke-linecap="round" stroke-linejoin="round"/>
<path d="M679.386 452.941C679.386 452.941 680.703 447.084 682.306 445.227C683.765 443.832 685.486 442.742 687.37 442.02" stroke="#393939" stroke-linecap="round" stroke-linejoin="round"/>
<path d="M602.616 453.92C602.616 453.92 601.873 464.487 601.114 467.424C600.354 470.361 595.83 469.686 591.678 469.686C587.525 469.686 586.023 476.438 585.263 482.515C584.504 488.592 575.456 555.723 576.958 565.227C578.461 574.73 594.328 584.858 611.681 585.989C629.033 587.12 653.56 584.47 663.384 576.925C673.208 569.379 674.322 563.421 672.06 555.791C669.798 548.161 663.755 540.329 660.734 536.936C657.712 533.543 654.691 529.391 654.691 529.391C654.691 529.391 637.71 473.163 633.557 469.011C629.405 464.858 621.116 466.749 621.116 466.749L618.466 452.772L602.616 453.92Z" fill="#ECC424" stroke="#393939" stroke-linecap="round" stroke-linejoin="round"/>
<path d="M586.85 558.728C586.85 558.728 604.692 519.448 650.251 531.72" stroke="#393939" stroke-linecap="round" stroke-linejoin="round"/>
<path d="M598.413 537.324C598.413 537.324 611.292 526.757 625.151 527.095" stroke="#393939" stroke-linecap="round" stroke-linejoin="round"/>
<path d="M624.442 466.361C623.335 466.405 622.234 466.54 621.15 466.766L618.5 452.789L602.65 453.92C602.65 453.92 601.907 464.487 601.147 467.424C600.776 468.926 599.459 469.483 597.771 469.686C599.037 473.062 603.679 483.409 614.365 484.034C623.834 484.675 624.661 472.64 624.442 466.361Z" fill="white" stroke="#393939" stroke-linecap="round" stroke-linejoin="round"/>
<path d="M601.89 462.512C604.745 463.156 607.658 463.506 610.583 463.559C613.876 463.632 617.156 463.124 620.272 462.056L618.584 452.738L602.734 453.869C602.734 453.869 602.329 458.545 601.89 462.512Z" fill="#393939" stroke="#393939" stroke-linecap="round" stroke-linejoin="round"/>
<path d="M642.655 390.536C642.655 390.536 655.113 381.471 670.204 383.784C685.294 386.096 684.163 409.83 678.508 416.244C672.854 422.658 659.265 418.506 659.265 415.484C659.265 412.463 661.527 402.284 655.889 396.916C654.392 395.407 652.515 394.329 650.456 393.797C648.397 393.266 646.233 393.299 644.191 393.895L642.655 390.536Z" fill="#393939" stroke="#393939" stroke-linecap="round" stroke-linejoin="round"/>
<path d="M582.36 418.084C581.955 421.444 581.831 424.831 581.989 428.212C582.36 431.993 577.077 434.626 580.469 441.041C583.862 447.455 591.796 458.41 610.668 458.782C629.54 459.153 641.98 441.429 641.98 424.819C641.98 408.209 621.184 395.431 610.195 395.431C599.206 395.431 587.188 404.867 584.875 408.648C583.424 411.597 582.569 414.804 582.36 418.084Z" fill="white" stroke="#393939" stroke-linecap="round" stroke-linejoin="round"/>
<path d="M604.169 432.128C604.294 432.786 604.213 433.467 603.937 434.078C603.661 434.688 603.203 435.199 602.626 435.54C602.049 435.881 601.381 436.036 600.713 435.984C600.045 435.931 599.41 435.674 598.893 435.247C598.377 434.82 598.004 434.244 597.827 433.598C597.649 432.952 597.675 432.267 597.902 431.636C598.128 431.005 598.543 430.46 599.091 430.073C599.638 429.687 600.292 429.479 600.962 429.478C601.737 429.412 602.507 429.652 603.107 430.148C603.706 430.643 604.088 431.354 604.169 432.128Z" stroke="#393939" stroke-linecap="round" stroke-linejoin="round"/>
<path d="M595.104 438.087C595.104 438.087 599.645 443.37 608.693 438.458" stroke="#393939" stroke-linecap="round" stroke-linejoin="round"/>
<path d="M592.842 428.279C594.092 428.279 595.104 426.586 595.104 424.498C595.104 422.41 594.092 420.717 592.842 420.717C591.593 420.717 590.581 422.41 590.581 424.498C590.581 426.586 591.593 428.279 592.842 428.279Z" fill="#393939"/>
<path d="M611.343 424.87C611.343 426.963 610.313 428.651 609.064 428.651C607.815 428.651 606.802 426.963 606.802 424.87C606.802 422.776 607.815 421.105 609.064 421.105C610.313 421.105 611.343 422.793 611.343 424.87Z" fill="#393939"/>
<path d="M589.112 418.084C590.067 417.087 591.264 416.354 592.586 415.958C593.909 415.561 595.311 415.514 596.657 415.822" stroke="#393939" stroke-linecap="round" stroke-linejoin="round"/>
<path d="M605.992 415.434C605.992 415.434 613.149 413.931 615.411 420.346" stroke="#393939" stroke-linecap="round" stroke-linejoin="round"/>
<path d="M605.671 397.71C605.671 397.71 616.238 421.105 625.674 427.132C635.11 433.158 644.158 429.022 645.677 425.629C649.67 417.797 650.48 408.725 647.939 400.309C644.158 387.48 636.241 379.175 623.784 379.935C611.326 380.695 596.995 390.873 596.995 390.873L605.671 397.71Z" fill="#393939" stroke="#393939" stroke-linecap="round" stroke-linejoin="round"/>
<path d="M610.195 398.841C610.195 398.841 585.736 417.324 581.145 421.105C576.553 424.886 570.578 422.608 566.425 409.019C562.273 395.431 570.966 384.121 582.664 384.121C594.362 384.121 607.562 391.616 607.562 391.616" fill="#393939"/>
<path d="M610.195 398.841C610.195 398.841 585.736 417.324 581.145 421.105C576.553 424.886 570.578 422.608 566.425 409.019C562.273 395.431 570.966 384.121 582.664 384.121C594.362 384.121 607.562 391.616 607.562 391.616" stroke="#393939" stroke-linecap="round" stroke-linejoin="round"/>
<path d="M631.109 431.605C631.109 431.605 637.136 421.477 642.807 422.169C648.479 422.861 645.441 436.888 642.419 440.281C639.398 443.674 633.743 439.91 633.743 439.91" fill="white"/>
<path d="M631.109 431.605C631.109 431.605 637.136 421.477 642.807 422.169C648.479 422.861 645.441 436.888 642.419 440.281C639.398 443.674 633.743 439.91 633.743 439.91" stroke="#393939" stroke-linecap="round" stroke-linejoin="round"/>
<path d="M596.995 475.813C596.746 474.841 596.295 473.932 595.671 473.145C595.047 472.359 594.265 471.713 593.374 471.249C592.484 470.786 591.506 470.515 590.504 470.455C589.502 470.395 588.498 470.547 587.559 470.901C580.014 473.18 577.431 489.773 575.49 500.34C573.549 510.907 561.53 570.915 561.53 570.915C561.53 570.915 549.073 572.789 543.789 574.291C538.506 575.794 542.658 576.553 550.204 577.313C557.749 578.073 562.273 578.815 562.273 578.815C562.273 578.815 553.985 582.968 561.53 582.968C569.075 582.968 573.599 578.056 574.359 576.216C575.118 574.376 595.493 498.095 596.995 489.419C598.497 480.742 596.995 475.813 596.995 475.813Z" fill="white" stroke="#393939" stroke-linecap="round" stroke-linejoin="round"/>
<path d="M668.735 543.536C668.735 543.536 657.847 536.261 646.622 543.857C635.397 551.453 643.972 572.249 646.285 579.524C648.597 586.799 657.51 607.579 661.814 618.146C666.119 628.712 669.731 645.154 670.727 648.192C671.723 651.23 679.639 653.155 682.931 652.496C690.712 650.033 698.236 646.822 705.398 642.909C709.348 640.275 710.344 635.65 708.032 634.654C705.719 633.658 682.931 633.996 682.931 633.996C682.931 633.996 678.644 620.492 677.985 610.229C677.327 599.966 673.36 570.274 673.039 560.365C672.719 550.457 670.136 545.578 668.735 543.536Z" fill="white" stroke="#393939" stroke-linecap="round" stroke-linejoin="round"/>
<path d="M680.635 637.034C680.605 638.19 680.376 639.332 679.96 640.41C676.306 641.045 672.611 641.412 668.904 641.508C669.765 644.884 670.389 647.348 670.727 648.26C671.706 651.23 679.639 653.222 682.931 652.564C690.712 650.1 698.236 646.889 705.398 642.976C709.348 640.343 710.344 635.718 708.032 634.722C705.719 633.726 682.931 634.063 682.931 634.063C682.931 634.063 680.635 635.397 680.635 637.034Z" fill="#393939" stroke="#393939" stroke-linecap="round" stroke-linejoin="round"/>
<path d="M651.247 647.28C651.247 647.28 648.53 647.281 642.487 605.857C639.836 587.728 641.828 558.12 634.891 548.212C627.953 538.303 606.195 541.291 606.195 562.577C606.195 583.862 625.995 630.434 631.515 643.803C637.034 657.172 638.452 665.595 643.331 666.591C648.209 667.587 667.604 662.624 675.031 657.679C682.458 652.733 683.944 645.863 678.998 645.863C674.052 645.863 651.247 647.28 651.247 647.28Z" fill="white" stroke="#393939" stroke-linecap="round" stroke-linejoin="round"/>
<path d="M647.871 649.34C647.534 650.184 647.404 651.096 647.492 652.001C647.581 652.905 647.884 653.776 648.378 654.539C649.306 655.552 646.048 656.058 636.106 656.227C638.385 662.304 640.14 666 643.314 666.642C648.276 667.638 667.587 662.675 675.014 657.729C682.442 652.783 683.927 645.913 678.981 645.913C674.035 645.913 651.247 647.399 651.247 647.399C650.584 647.483 649.945 647.699 649.365 648.032C648.786 648.365 648.278 648.809 647.871 649.34Z" fill="#393939" stroke="#393939" stroke-linecap="round" stroke-linejoin="round"/>
<path d="M484.962 329.16C484.642 321.487 481.449 314.214 476.016 308.786C467.07 300.346 447.202 298.354 437.766 311.267C428.33 324.18 428.33 334.629 431.807 337.11L435.285 339.592C435.285 339.592 430.811 348.032 435.774 352.016C440.737 355.999 444.72 359.966 445.716 355.493C446.712 351.02 439.251 341.584 450.679 334.123C462.107 326.662 484.962 329.16 484.962 329.16Z" fill="#393939" stroke="#393939" stroke-linecap="round" stroke-linejoin="round"/>
<path d="M479.493 318.694C479.493 318.694 494.398 306.271 502.838 316.703C511.278 327.134 493.909 340.554 491.427 342.023C488.946 343.491 479.004 323.151 479.004 323.151C479.004 323.151 476.522 321.176 479.493 318.694Z" fill="#393939" stroke="#393939" stroke-linecap="round" stroke-linejoin="round"/>
<path d="M493.082 344.538C493.082 344.538 498.703 336.266 501.674 343.204C504.644 350.142 498.298 359.747 495.394 361.772C492.491 363.798 493.082 344.538 493.082 344.538Z" fill="white" stroke="#393939" stroke-linecap="round" stroke-linejoin="round"/>
<path d="M442.492 352.792C442.492 352.792 437.192 340.571 433.563 345.854C429.934 351.138 433.9 365.03 440.838 365.03C441.738 363.603 442.404 362.042 442.813 360.405" fill="white"/>
<path d="M442.492 352.792C442.492 352.792 437.192 340.571 433.563 345.854C429.934 351.138 433.9 365.03 440.838 365.03C441.738 363.603 442.404 362.042 442.813 360.405" stroke="#393939" stroke-linecap="round" stroke-linejoin="round"/>
<path d="M523.027 472.64C517.237 457.347 525.677 417.291 512.494 410.961C499.31 404.631 480.877 402.521 480.877 402.521L465.584 403.078L450.291 402.521C450.291 402.521 431.841 404.631 418.658 410.961C405.474 417.291 413.914 457.347 408.125 472.64C402.335 487.933 397.575 507.936 399.685 520.596C401.795 533.256 409.171 537.982 414.978 539.569C418.962 540.65 447.911 540.244 465.618 539.89C483.274 540.244 512.224 540.65 516.258 539.569C522.048 537.982 529.424 533.239 531.534 520.596C533.644 507.953 528.833 487.832 523.027 472.64Z" fill="#ECC424" stroke="#393939" stroke-linecap="round" stroke-linejoin="round"/>
<path d="M431.773 477.907C431.773 477.907 468.623 459.744 497.892 472.843" stroke="#393939" stroke-linecap="round" stroke-linejoin="round"/>
<path d="M455.507 460.25C455.507 460.25 473.163 457.718 485.283 464.284" stroke="#393939" stroke-linecap="round" stroke-linejoin="round"/>
<path d="M457.448 392.798C457.448 392.798 447.202 396.174 445.548 400.748C443.893 405.323 440.585 417.932 440.922 423.553C441.26 429.174 444.552 432.145 446.206 429.512C447.86 426.878 463.727 419.924 465.719 418.928C467.711 417.932 479.932 421.578 482.245 424.211C484.557 426.845 491.174 434.137 492.17 431.487C493.166 428.836 492.17 416.936 488.794 406.369C485.418 395.802 482.515 394.131 476.556 392.477C470.598 390.823 457.448 392.798 457.448 392.798Z" fill="white" stroke="#393939" stroke-linecap="round" stroke-linejoin="round"/>
<path d="M453.734 392.139C453.734 392.139 454.393 408.682 457.11 417.274C459.828 425.866 467.019 437.445 470.327 435.842C473.636 434.238 477.282 418.962 478.919 412.699C480.206 406.477 481.091 400.18 481.57 393.844C481.57 393.844 458.022 395.448 453.734 392.139Z" fill="white" stroke="#393939" stroke-linecap="round" stroke-linejoin="round"/>
<path d="M481.502 393.793C481.502 393.793 458.022 395.481 453.734 392.105C453.734 392.105 453.92 396.612 454.46 402.149C462.325 404.686 470.684 405.3 478.835 403.938C479.409 403.82 479.932 403.668 480.523 403.533C481.08 398.486 481.502 393.793 481.502 393.793Z" fill="#393939" stroke="#393939" stroke-linecap="round" stroke-linejoin="round"/>
<path d="M442.07 336.402C442.07 336.402 436.449 380.847 442.07 388.51C447.691 396.174 467.086 400.326 478.835 397.693C490.583 395.06 496.204 387.565 496.728 372.66C497.251 357.755 493.149 333.329 488.035 329.768C482.92 326.206 470.159 321.581 458.917 325.159C447.674 328.738 443.59 332.317 442.07 336.402Z" fill="white" stroke="#393939" stroke-linecap="round" stroke-linejoin="round"/>
<path d="M458.933 322.408C458.933 322.408 455.557 335.203 447.489 339.288C439.42 343.373 441.429 332.536 443.454 326.493" fill="#393939"/>
<path d="M458.933 322.408C458.933 322.408 455.557 335.203 447.489 339.288C439.42 343.373 441.429 332.536 443.454 326.493" stroke="#393939" stroke-linecap="round" stroke-linejoin="round"/>
<path d="M454.241 352.319C454.241 352.319 459.997 347.255 464.369 351.644" stroke="#393939" stroke-linecap="round" stroke-linejoin="round"/>
<path d="M476.303 351.29C476.303 351.29 481.046 344.842 486.144 351.644" stroke="#393939" stroke-linecap="round" stroke-linejoin="round"/>
<path d="M472.91 342.883L474.885 364.709C474.885 364.709 468.943 367.68 466.293 362.059" fill="white"/>
<path d="M472.91 342.883L474.885 364.709C474.885 364.709 468.943 367.68 466.293 362.059" stroke="#393939" stroke-linecap="round" stroke-linejoin="round"/>
<path d="M453.397 342.883C456.862 340.545 461.081 339.598 465.213 340.233" stroke="#393939" stroke-linecap="round" stroke-linejoin="round"/>
<path d="M473.568 340.571C475.226 339.477 477.156 338.866 479.142 338.806C481.127 338.747 483.09 339.241 484.81 340.233" stroke="#393939" stroke-linecap="round" stroke-linejoin="round"/>
<path d="M468.285 364.372C468.285 364.372 454.595 366.971 455.591 369.284C456.587 371.596 460.79 374.348 464.757 374.044C468.724 373.74 471.593 368.98 471.593 368.98C471.593 368.98 477.991 378.433 486.482 370.28C489.199 367.68 474.885 364.692 474.885 364.692C474.885 364.692 470.26 366.684 468.285 364.372Z" fill="#393939"/>
<path d="M522.115 526.538C522.115 526.538 521.102 517.642 489.317 510.316C457.532 502.99 434.305 509.776 423.688 517.642C413.07 525.508 406.521 530.724 402.487 544.853C398.452 558.981 397.423 586.698 429.241 594.024C461.06 601.35 511.498 600.253 526.133 585.905C549.748 562.779 526.656 531.72 522.115 526.538Z" fill="#393939" stroke="#393939" stroke-linecap="round" stroke-linejoin="round"/>
<path d="M487.477 521.153C487.477 521.153 477.653 520.242 474.834 519.617C472.015 518.992 462.292 524.327 456.958 527.146C452.902 529.602 449.801 533.363 448.164 537.814C448.164 538.759 447.236 543.452 448.805 544.093C450.375 544.734 458.208 542.827 460.402 542.827C462.596 542.827 474.834 539.063 477.974 539.451C481.114 539.839 492.44 533.408 492.44 533.408L487.477 521.153Z" fill="white" stroke="#393939" stroke-linecap="round" stroke-linejoin="round"/>
<path d="M474.531 534.674C474.531 534.674 465.736 535.619 463.542 537.493C461.16 539.258 458.642 540.833 456.013 542.202" stroke="#393939" stroke-linecap="round" stroke-linejoin="round"/>
<path d="M470.766 530.032C466.963 531.116 463.281 532.587 459.777 534.421C456.489 536.945 453.443 539.771 450.679 542.861" stroke="#393939" stroke-linecap="round" stroke-linejoin="round"/>
<path d="M468.876 525.896C468.876 525.896 456.638 530.285 454.443 531.855C452.217 533.696 450.119 535.687 448.164 537.814" stroke="#393939" stroke-linecap="round" stroke-linejoin="round"/>
<path d="M512.105 408.85C512.105 408.85 527.399 411.484 534.775 419.384C542.152 427.283 551.115 467.34 555.335 482.633C559.555 497.926 561.665 520.883 559.555 525.626C557.445 530.37 548.009 533.408 540.16 533.408C532.311 533.408 491.073 534.303 491.073 534.303L485.283 521.643L526.656 502.383L516.258 442.053" fill="#ECC424"/>
<path d="M512.105 408.85C512.105 408.85 527.399 411.484 534.775 419.384C542.152 427.283 551.115 467.34 555.335 482.633C559.555 497.926 561.665 520.883 559.555 525.626C557.445 530.37 548.009 533.408 540.16 533.408C532.311 533.408 491.073 534.303 491.073 534.303L485.283 521.643L526.656 502.383L516.258 442.053" stroke="#393939" stroke-linecap="round" stroke-linejoin="round"/>
<path d="M424.988 408.85C424.988 408.85 409.694 411.484 402.318 419.384C394.941 427.283 385.978 467.34 381.775 482.633C377.572 497.926 375.141 517.372 377.251 522.115C379.361 526.859 390.434 534.235 398.334 534.235C406.234 534.235 444.754 533.34 444.754 533.34L449.717 521.153L410.994 499.986L420.768 442.053" fill="#ECC424"/>
<path d="M424.988 408.85C424.988 408.85 409.694 411.484 402.318 419.384C394.941 427.283 385.978 467.34 381.775 482.633C377.572 497.926 375.141 517.372 377.251 522.115C379.361 526.859 390.434 534.235 398.334 534.235C406.234 534.235 444.754 533.34 444.754 533.34L449.717 521.153L410.994 499.986L420.768 442.053" stroke="#393939" stroke-linecap="round" stroke-linejoin="round"/>
<path d="M449.717 521.153C449.717 521.153 459.524 520.242 462.343 519.617C465.162 518.992 474.902 524.327 480.236 527.146C484.289 529.601 487.385 533.363 489.014 537.814C489.014 538.759 489.959 543.452 488.389 544.093C486.819 544.734 478.97 542.827 476.776 542.827C474.581 542.827 462.343 539.063 459.203 539.451C456.064 539.839 444.754 533.408 444.754 533.408L449.717 521.153Z" fill="white" stroke="#393939" stroke-linecap="round" stroke-linejoin="round"/>
<path d="M462.664 534.674C462.664 534.674 471.441 535.619 473.636 537.493C476.02 539.254 478.537 540.829 481.164 542.202" stroke="#393939" stroke-linecap="round" stroke-linejoin="round"/>
<path d="M466.428 530.032C470.226 531.115 473.903 532.585 477.4 534.421C480.693 536.94 483.739 539.766 486.498 542.861" stroke="#393939" stroke-linecap="round" stroke-linejoin="round"/>
<path d="M468.302 525.896C468.302 525.896 480.54 530.285 482.734 531.855C484.96 533.696 487.058 535.687 489.014 537.814" stroke="#393939" stroke-linecap="round" stroke-linejoin="round"/>
<path d="M456.503 552.601C456.503 552.601 431.267 529.391 410.083 528.884C388.898 528.378 376.323 543.519 377.268 566.729C378.213 589.939 401.963 745.336 401.963 745.336L426.186 744.83L432.28 568.248" fill="#393939"/>
<path d="M456.503 552.601C456.503 552.601 431.267 529.391 410.083 528.884C388.898 528.378 376.323 543.519 377.268 566.729C378.213 589.939 401.963 745.336 401.963 745.336L426.186 744.83L432.28 568.248" stroke="#393939" stroke-linecap="round" stroke-linejoin="round"/>
<path d="M401.963 745.336C401.963 745.336 388.831 754.418 385.303 765.018C381.775 775.619 401.963 772.598 410.623 764.023C416.374 758.08 421.608 751.66 426.271 744.83L401.963 745.336Z" fill="white" stroke="#393939" stroke-linecap="round" stroke-linejoin="round"/>
<path d="M477.147 552.601C477.147 552.601 502.383 529.391 523.584 528.884C544.785 528.378 557.344 543.519 556.382 566.729C555.419 589.939 522.52 745.336 522.52 745.336L498.298 744.83L501.336 568.248" fill="#393939"/>
<path d="M477.147 552.601C477.147 552.601 502.383 529.391 523.584 528.884C544.785 528.378 557.344 543.519 556.382 566.729C555.419 589.939 522.52 745.336 522.52 745.336L498.298 744.83L501.336 568.248" stroke="#393939" stroke-linecap="round" stroke-linejoin="round"/>
<path d="M522.52 745.336C522.52 745.336 535.653 754.418 539.181 765.018C542.709 775.619 522.52 772.598 513.945 764.023C508.195 758.08 502.96 751.66 498.298 744.83L522.52 745.336Z" fill="white" stroke="#393939" stroke-linecap="round" stroke-linejoin="round"/>
<path d="M334.595 353.585C334.595 353.585 347.914 349.146 349.956 341.297C351.999 333.448 344.504 307.132 321.952 297.898C299.401 288.665 262.501 295.164 249.858 309.529C237.215 323.893 250.55 337.195 250.887 340.267C251.225 343.339 240.979 345.331 239.274 358.379C237.569 371.428 254.314 384.678 272.409 388.763C290.505 392.848 299.417 387.734 299.417 380.897C299.417 374.061 295.316 367.916 303.182 362.802C311.048 357.687 319.91 348.116 323.674 348.454C327.438 348.791 334.595 353.585 334.595 353.585Z" fill="#393939"/>
<mask id="mask1_37_3" style="mask-type:luminance" maskUnits="userSpaceOnUse" x="239" y="293" width="112" height="98">
<path d="M334.595 353.585C334.595 353.585 347.914 349.146 349.956 341.297C351.999 333.448 344.504 307.132 321.952 297.898C299.401 288.665 262.501 295.164 249.858 309.529C237.215 323.893 250.55 337.195 250.887 340.267C251.225 343.339 240.979 345.331 239.274 358.379C237.569 371.428 254.314 384.678 272.409 388.763C290.505 392.848 299.417 387.734 299.417 380.897C299.417 374.061 295.316 367.916 303.182 362.802C311.048 357.687 319.91 348.116 323.674 348.454C327.438 348.791 334.595 353.585 334.595 353.585Z" fill="white"/>
</mask>
<g mask="url(#mask1_37_3)">
<path d="M305.849 311.267C296.815 325.809 283.134 336.872 267.025 342.664C240.574 351.762 231.492 345.145 231.492 345.145" stroke="#636363" stroke-linecap="round" stroke-linejoin="round"/>
<path d="M293.442 305.528C293.442 305.528 268.662 338.579 238.076 337.752" stroke="#636363" stroke-linecap="round" stroke-linejoin="round"/>
<path d="M315.757 311.267C315.757 311.267 273.557 374.905 223.204 374.905" stroke="#636363" stroke-linecap="round" stroke-linejoin="round"/>
<path d="M298.405 300.464C298.405 300.464 340.368 322.492 349.956 341.229" stroke="#636363" stroke-linecap="round" stroke-linejoin="round"/>
</g>
<path d="M334.595 353.585C334.595 353.585 347.914 349.146 349.956 341.297C351.999 333.448 344.504 307.132 321.952 297.898C299.401 288.665 262.501 295.164 249.858 309.529C237.215 323.893 250.55 337.195 250.887 340.267C251.225 343.339 240.979 345.331 239.274 358.379C237.569 371.428 254.314 384.678 272.409 388.763C290.505 392.848 299.417 387.734 299.417 380.897C299.417 374.061 295.316 367.916 303.182 362.802C311.048 357.687 319.91 348.116 323.674 348.454C327.438 348.791 334.595 353.585 334.595 353.585Z" stroke="#393939" stroke-linecap="round" stroke-linejoin="round"/>
<path d="M326.729 419.519C326.729 419.519 346.546 424.988 355.763 437.968C364.979 450.949 372.845 482.042 376.019 495.36C379.192 508.679 375.057 523.297 365.891 528.074C356.725 532.851 341.55 514.57 337.803 507.666C334.055 500.762 334.038 475.898 331.051 459.153C328.063 442.408 321.834 421.578 321.834 421.578C321.834 421.578 318.88 418.151 326.729 419.519Z" fill="white" stroke="#393939" stroke-linecap="round" stroke-linejoin="round"/>
<path d="M287.095 376.424C287.095 376.424 289.154 396.933 287.095 401.373C285.036 405.812 277.541 410.927 264.898 415.029C252.255 419.13 243.713 422.557 236.877 434.17C230.041 445.784 222.563 504.746 213.988 520.258C205.244 536.092 203.201 568.468 223.93 584.538C240.81 597.687 300.093 596.1 321.26 592.978C342.428 589.855 361.266 592.859 367.073 578.174C372.879 563.488 360.894 538.658 355.088 531.146C349.281 523.634 337.6 516.207 337.6 516.207C337.6 516.207 344.892 503.547 345.449 492.98C346.479 473.838 326.662 419.519 326.662 419.519C326.662 419.519 314.711 414.455 311.976 407.905C309.242 401.356 310.288 392.19 310.288 392.19L287.095 376.424Z" fill="#ECC424" stroke="#393939" stroke-linecap="round" stroke-linejoin="round"/>
<path d="M254.989 536.109C254.989 536.109 289.83 537.628 308.769 552.769" stroke="#393939" stroke-linecap="round" stroke-linejoin="round"/>
<path d="M277.541 504.594C277.541 504.594 298.033 507.666 317.158 500.492" stroke="#393939" stroke-linecap="round" stroke-linejoin="round"/>
<path d="M301.105 507.666C301.105 507.666 314.778 505.624 322.627 500.83" stroke="#393939" stroke-linecap="round" stroke-linejoin="round"/>
<path d="M246.11 479.392C253.622 474.953 262.839 454.46 264.56 438.053C265.911 425.022 262.737 418.472 261.387 416.345C250.651 419.991 243.055 423.806 236.877 434.306C232.657 441.48 227.137 466.276 222.158 488.136C228.893 488.17 239.308 483.325 246.11 479.392Z" fill="white" stroke="#393939" stroke-linecap="round" stroke-linejoin="round"/>
<path d="M312.044 407.905C309.309 401.423 310.356 392.19 310.356 392.19L287.095 376.424C287.095 376.424 289.154 396.933 287.095 401.373C285.508 404.749 280.63 408.665 272.612 412.142C274.03 418.405 278.182 434.457 284.715 440.99C292.902 449.194 308.617 450.899 314.086 439.977C319.555 429.056 316.821 414.016 316.821 414.016L316.956 413.661C314.884 412.16 313.2 410.187 312.044 407.905Z" fill="white" stroke="#393939" stroke-linecap="round" stroke-linejoin="round"/>
<path d="M310.339 392.19L290.167 378.551L287.416 380.053C287.618 382.636 287.872 386.265 287.973 389.877C292.446 394.941 298.928 401.204 304.937 402.352C306.811 402.711 308.722 402.83 310.626 402.706C310.112 399.225 310.016 395.694 310.339 392.19Z" fill="#393939"/>
<path d="M319.218 330.358C319.218 330.358 311.706 343.002 299.738 349.484C293.272 353.137 286.393 356.005 279.246 358.025C279.246 358.025 279.583 362.127 277.879 362.127C276.174 362.127 272.409 355.982 270.029 355.645C267.649 355.307 260.121 365.199 262.838 369.301C265.38 372.984 268.949 375.837 273.102 377.504C276.478 378.872 280.276 374.432 280.276 374.432C280.276 374.432 306.575 406.504 321.615 398.351C336.655 390.198 335.608 348.133 335.608 348.133C335.608 348.133 332.198 338.9 319.218 330.358Z" fill="white" stroke="#393939" stroke-linecap="round" stroke-linejoin="round"/>
<path d="M309.14 357.012C309.14 359.173 308.144 360.928 306.912 360.928C305.68 360.928 304.701 359.24 304.701 357.012C304.701 354.784 305.697 353.079 306.912 353.079C308.128 353.079 309.14 354.834 309.14 357.012Z" fill="#393939"/>
<path d="M330.325 354.953C330.325 357.13 329.329 358.886 328.097 358.886C326.864 358.886 325.885 357.198 325.885 354.953C325.885 352.708 326.864 351.036 328.097 351.036C329.329 351.036 330.325 352.792 330.325 354.953Z" fill="#393939"/>
<path d="M322.29 351.205L320.247 357.687C320.247 357.687 325.7 359.375 325.7 362.481C325.7 365.587 320.636 366.921 319.555 366.921" stroke="#393939" stroke-linecap="round" stroke-linejoin="round"/>
<path d="M315.453 376.829C316.558 377.417 317.789 377.725 319.04 377.725C320.292 377.725 321.523 377.417 322.627 376.829" stroke="#393939" stroke-linecap="round" stroke-linejoin="round"/>
<path d="M302.473 348.808C302.473 348.808 305.545 343.339 311.352 344.707" stroke="#393939" stroke-linecap="round" stroke-linejoin="round"/>
<path d="M325.362 345.736C325.897 345.452 326.483 345.28 327.087 345.229C327.69 345.178 328.297 345.251 328.871 345.442C329.446 345.633 329.976 345.938 330.429 346.34C330.881 346.742 331.248 347.231 331.506 347.779" stroke="#393939" stroke-linecap="round" stroke-linejoin="round"/>
<path d="M314.424 532.074C314.424 532.074 326.054 533.982 326.746 535.45C327.438 536.919 331.304 545.275 330.257 547.722C329.211 550.17 327.101 546.676 326.409 544.211C325.716 541.747 317.969 536.159 317.969 536.159" fill="white"/>
<path d="M314.424 532.074C314.424 532.074 326.054 533.982 326.746 535.45C327.438 536.919 331.304 545.275 330.257 547.722C329.211 550.17 327.101 546.676 326.409 544.211C325.716 541.747 317.969 536.159 317.969 536.159" stroke="#393939" stroke-linecap="round" stroke-linejoin="round"/>
<path d="M312.381 532.277C312.381 532.277 322.239 535.332 323.201 536.581C325.244 539.232 329.261 545.815 328.265 548.262C327.269 550.71 325.902 549.241 320.804 541.274C319.434 539.522 317.813 537.981 315.994 536.7" fill="white"/>
<path d="M312.381 532.277C312.381 532.277 322.239 535.332 323.201 536.581C325.244 539.232 329.261 545.815 328.265 548.262C327.269 550.71 325.902 549.241 320.804 541.274C319.434 539.522 317.813 537.981 315.994 536.7" stroke="#393939" stroke-linecap="round" stroke-linejoin="round"/>
<path d="M259.614 416.261C259.614 416.261 236.59 420.666 223.609 430.474C210.629 440.281 202.56 492.491 201.193 505.117C199.825 517.743 198.391 529.644 204.687 532.125C210.983 534.606 257.96 536.683 267.413 536.683C276.866 536.683 303.165 540.16 305.258 540.16C307.351 540.16 319.623 547.874 321.733 549.984C323.843 552.094 324.147 548.161 323.134 544.363C321.767 539.299 314.694 531.399 305.967 528.597C297.24 525.795 282.487 527.196 273.017 521.946C263.547 516.697 240.793 504.712 237.282 504.054C235.783 503.706 234.259 503.475 232.725 503.362C232.725 503.362 250.955 462.715 252.694 456.756" fill="white"/>
<path d="M259.614 416.261C259.614 416.261 236.59 420.666 223.609 430.474C210.629 440.281 202.56 492.491 201.193 505.117C199.825 517.743 198.391 529.644 204.687 532.125C210.983 534.606 257.96 536.683 267.413 536.683C276.866 536.683 303.165 540.16 305.258 540.16C307.351 540.16 319.623 547.874 321.733 549.984C323.843 552.094 324.147 548.161 323.134 544.363C321.767 539.299 314.694 531.399 305.967 528.597C297.24 525.795 282.487 527.196 273.017 521.946C263.547 516.697 240.793 504.712 237.282 504.054C235.783 503.706 234.259 503.475 232.725 503.362C232.725 503.362 250.955 462.715 252.694 456.756" stroke="#393939" stroke-linecap="round" stroke-linejoin="round"/>
<path d="M313.327 538.742C313.327 538.742 321.767 544.701 321.767 549.967" stroke="#393939" stroke-linecap="round" stroke-linejoin="round"/>
<path d="M364.608 504.712C357.084 502.833 349.125 503.933 342.394 507.784C331.473 514.283 325.311 520.427 318.762 522.132C312.212 523.837 301.342 522.824 293.138 526.234C287.441 528.483 281.625 530.421 275.718 532.041C271.616 533.408 271.954 536.48 275.026 536.48C278.098 536.48 282.2 536.143 282.2 536.143C282.2 536.143 276.748 544.684 276.748 547.418C276.748 550.153 284.934 550.491 288.007 549.798C291.079 549.106 296.21 542.624 297.915 541.949C299.62 541.274 306.119 542.287 310.896 538.877C315.673 535.467 317.732 533.813 317.732 533.813C317.732 533.813 337.212 539.957 351.492 536.548C365.773 533.138 370.786 529.897 374.888 515.211" fill="white"/>
<path d="M364.608 504.712C357.084 502.833 349.125 503.933 342.394 507.784C331.473 514.283 325.311 520.427 318.762 522.132C312.212 523.837 301.342 522.824 293.138 526.234C287.441 528.483 281.625 530.421 275.718 532.041C271.616 533.408 271.954 536.48 275.026 536.48C278.098 536.48 282.2 536.143 282.2 536.143C282.2 536.143 276.748 544.684 276.748 547.418C276.748 550.153 284.934 550.491 288.007 549.798C291.079 549.106 296.21 542.624 297.915 541.949C299.62 541.274 306.119 542.287 310.896 538.877C315.673 535.467 317.732 533.813 317.732 533.813C317.732 533.813 337.212 539.957 351.492 536.548C365.773 533.138 370.786 529.897 374.888 515.211" stroke="#393939" stroke-linecap="round" stroke-linejoin="round"/>
<path d="M282.267 536.159C284.21 533.86 286.52 531.898 289.104 530.353" stroke="#393939" stroke-linecap="round" stroke-linejoin="round"/>
<path d="M279.195 548.448C279.195 548.448 285.356 536.835 293.543 532.058" stroke="#393939" stroke-linecap="round" stroke-linejoin="round"/>
<path d="M283.955 549.326C283.955 549.326 286.437 539.89 297.645 534.134" stroke="#393939" stroke-linecap="round" stroke-linejoin="round"/>
<path d="M288.074 549.815C288.846 546.762 290.391 543.959 292.562 541.676C294.732 539.394 297.453 537.709 300.464 536.784" stroke="#393939" stroke-linecap="round" stroke-linejoin="round"/>
<path d="M356.607 559.572C356.607 559.572 341.415 552.516 326.763 566.071C312.111 579.625 312.246 586.327 292.733 614.061C273.22 641.795 244.996 692.705 239.038 696.503C233.079 700.301 214.089 707.88 210.342 719.274C206.594 730.668 212.03 733.926 220.098 730.668C228.167 727.41 241.789 704.082 243.967 702.461C246.144 700.841 292.243 663.958 316.652 649.846C341.06 635.735 353.4 622.484 363.156 598.075C372.913 573.667 365.283 561.193 356.607 559.572Z" fill="white" stroke="#393939" stroke-linecap="round" stroke-linejoin="round"/>
<path d="M243.545 702.833C241.059 701.63 238.973 699.738 237.535 697.38C230.412 701.398 213.903 708.707 210.291 719.324C206.493 730.718 211.979 733.976 220.048 730.718C227.88 727.528 240.506 706.192 243.545 702.833Z" fill="#393939" stroke="#393939" stroke-linecap="round" stroke-linejoin="round"/>
<path d="M246.954 715.054C246.954 715.054 274.3 670.558 291.653 642.892C309.005 615.225 317.158 598.43 317.158 584.858C317.158 584.858 317.867 564.889 301.966 564.788C292.193 564.788 273.76 570.763 260.205 596.86C246.651 622.956 236.877 708.048 235.257 712.927C233.636 717.805 233.569 748.189 237.957 755.245C242.346 762.301 249.892 757.406 250.432 742.214C250.769 733.031 249.594 723.855 246.954 715.054Z" fill="white" stroke="#393939" stroke-linecap="round" stroke-linejoin="round"/>
<path d="M234.868 714.682C233.653 722.852 234.007 748.729 237.957 755.194C242.312 762.233 249.892 757.355 250.432 742.163C250.762 733.003 249.587 723.851 246.954 715.071C246.954 715.071 240.759 722.548 234.868 714.682Z" fill="#393939" stroke="#393939" stroke-linecap="round" stroke-linejoin="round"/>
<g clip-path="url(#clip0_37_3)">
<mask id="mask2_37_3" style="mask-type:luminance" maskUnits="userSpaceOnUse" x="135" y="124" width="466" height="147">
<path d="M135 124H600V271H135V124Z" fill="white"/>
</mask>
<g mask="url(#mask2_37_3)">
<path d="M378.416 162.593C376.752 162.593 375.758 162.873 375.758 163.342C375.758 163.888 376.787 164.201 378.579 164.201C379.789 164.201 380.963 163.886 382.082 163.262C380.743 162.818 379.514 162.593 378.416 162.593ZM376.239 184.585C380.099 184.585 383.309 183.741 385.78 182.077C388.62 180.18 390 177.492 390 173.86C390 169.541 388.192 166.406 384.478 164.286C382.8 165.717 380.744 166.442 378.361 166.442C377.278 166.442 376.292 166.264 375.43 165.913C373.797 165.262 373.454 164.215 373.454 163.451C373.454 162.037 374.315 160.352 378.416 160.352C380.117 160.352 382.001 160.769 384.021 161.592C385.027 160.313 385.537 158.77 385.537 157C385.537 153.99 384.391 151.783 382.032 150.252C379.994 148.944 377.312 148.281 374.062 148.281H371.295V184.585H376.239ZM364.337 186.826L364.365 186.248C364.545 182.511 364.636 179.291 364.636 176.678V156.24C364.636 153.629 364.545 150.41 364.365 146.672L364.337 146.094H373.245C377.318 146.094 380.655 146.85 383.163 148.34C386.339 150.208 387.95 153.122 387.95 157C387.95 159.047 387.31 160.943 386.047 162.644C390.236 165.185 392.358 168.828 392.358 173.48C392.358 177.95 390.688 181.402 387.391 183.742C384.553 185.787 380.8 186.826 376.239 186.826H364.337Z" fill="#00402B"/>
<path d="M403.57 176.035C404.866 176.348 406.326 176.507 407.916 176.507C412.556 176.507 416.341 175.379 419.166 173.156C422.241 170.748 423.8 167.282 423.8 162.855C423.8 157.564 421.613 153.766 417.115 151.246C413.7 149.341 409.144 148.345 403.57 148.284V176.035ZM396.612 186.826L396.64 186.248C396.821 182.508 396.912 179.307 396.912 176.733V156.186C396.912 153.613 396.821 150.412 396.64 146.672L396.612 146.094H404.269C410.154 146.094 415.126 147.363 419.046 149.868C423.764 152.814 426.159 157.185 426.159 162.855C426.159 167.922 424.331 171.952 420.727 174.832C417.446 177.431 413.155 178.748 407.97 178.748C406.367 178.748 404.892 178.612 403.574 178.345C403.591 180.388 403.681 183.041 403.842 186.247L403.872 186.826H396.612Z" fill="#00402B"/>
<path d="M450.098 186.934C447.783 186.934 444.328 186.916 439.535 186.88C434.902 186.844 431.351 186.826 428.98 186.826H428.399L428.427 186.247C428.607 182.544 428.699 179.708 428.699 177.817V155.102C428.699 153.213 428.607 150.376 428.427 146.672L428.399 146.094H446.724C447.032 146.094 447.491 146.067 448.09 146.015C448.729 145.958 449.208 145.931 449.554 145.931C450.977 145.931 451.087 146.893 451.087 147.187C451.087 147.482 450.973 148.444 449.499 148.444C449.19 148.444 448.738 148.416 448.116 148.36C447.538 148.307 447.106 148.281 446.833 148.281H435.357V158.671C437.214 158.667 439.813 158.649 443.099 158.617C446.877 158.58 449.594 158.562 451.405 158.562C452.777 158.562 452.883 159.524 452.883 159.819C452.883 160.616 452.166 161.021 450.751 161.021C450.481 161.021 450.1 161.002 449.62 160.965C449.151 160.929 448.808 160.912 448.574 160.912H435.357V184.584C437.056 184.581 439.435 184.563 442.445 184.53C445.926 184.494 448.43 184.476 450.098 184.476C451.471 184.476 451.577 185.438 451.577 185.732C451.577 186.014 451.471 186.934 450.098 186.934Z" fill="#00402B"/>
<path d="M456.629 187.259C456.333 187.259 455.368 187.149 455.368 185.732V147.187C455.368 145.82 456.333 145.714 456.629 145.714C457.396 145.714 457.842 146.546 457.988 146.819L474.918 178.963L492.008 146.605C492.131 146.379 492.496 145.714 493.151 145.714C493.963 145.714 494.467 146.195 494.467 146.97C494.467 150.272 494.422 155.151 494.33 161.886C494.24 168.439 494.194 173.453 494.194 176.787C494.194 179.126 494.286 182.309 494.466 186.249L494.492 186.826H487.394L487.428 186.242C487.599 183.336 487.723 174.283 487.797 159.318C483.121 168.216 478.28 177.325 473.392 186.426L473.309 186.58L473.151 186.659C473.051 186.709 472.934 186.756 472.803 186.798L472.587 186.869L472.049 186.601L471.971 186.497C471.865 186.356 471.617 186.027 467.024 177.259L457.784 159.582C457.79 162.636 457.808 166.657 457.836 171.579C457.873 178.079 457.89 182.744 457.89 185.841C457.89 186.887 457.239 187.259 456.629 187.259Z" fill="#00402B"/>
<path d="M512.336 176.128C513.034 176.271 513.737 176.344 514.432 176.344C515.335 176.344 516.162 176.194 516.89 175.897C518.124 175.346 518.124 174.676 518.124 174.456C518.124 174.137 518.124 173.544 516.718 173.544C515.209 173.544 513.738 174.412 512.336 176.128ZM498.92 187.259C497.598 187.259 497.496 186.381 497.496 186.112C497.496 185.386 498.139 185.018 499.409 185.018C501.193 185.018 502.888 184.376 504.449 183.109C505.951 181.888 507.435 179.964 508.865 177.384C502.187 174.489 498.802 169.603 498.802 162.855C498.802 157.222 501.196 152.852 505.916 149.866C509.871 147.363 514.86 146.094 520.746 146.094H528.076L528.048 146.672C527.868 150.389 527.776 153.627 527.776 156.295V176.679C527.776 179.312 527.868 182.531 528.048 186.248L528.076 186.826H520.82L520.846 186.249C521.026 182.329 521.118 179.09 521.118 176.624V148.281H520.746C515.362 148.281 510.864 149.383 507.378 151.558C503.194 154.149 501.161 157.844 501.161 162.855C501.161 168.923 504.084 173.035 510.093 175.413C512.089 172.685 514.316 171.303 516.718 171.303C517.672 171.303 518.508 171.568 519.202 172.092C519.944 172.652 520.319 173.429 520.319 174.402C520.319 175.806 519.619 176.899 518.235 177.651C517.139 178.236 515.878 178.531 514.486 178.531C513.377 178.531 512.226 178.38 511.058 178.083C509.51 180.826 507.969 182.898 506.476 184.243C504.318 186.243 501.774 187.259 498.92 187.259Z" fill="#00402B"/>
<path d="M391.805 252.26C391.409 252.26 390.49 252.095 390.49 250.57C390.49 250.369 390.508 250.092 390.547 249.725C390.59 249.322 390.599 249.136 390.599 249.052V227.864H371.295V241.733C371.295 244.188 371.387 247.408 371.567 251.303L371.594 251.88H364.336L364.365 251.302C364.545 247.601 364.636 244.747 364.636 242.818V220.157C364.636 218.301 364.545 215.464 364.365 211.726L364.337 211.148H371.594L371.567 211.726C371.387 215.515 371.295 218.369 371.295 220.211V225.623H390.598C390.594 224.105 390.576 221.999 390.544 219.215C390.508 216.137 390.49 213.791 390.49 212.242C390.49 211.319 390.981 210.769 391.805 210.769C392.415 210.769 393.066 211.142 393.066 212.188V250.841C393.066 251.887 392.415 252.26 391.805 252.26Z" fill="#645524"/>
<path d="M417.931 212.468C408.268 212.468 403.57 218.849 403.57 231.975C403.57 237.34 404.55 241.658 406.482 244.806C408.827 248.642 412.394 250.506 417.386 250.506C422.442 250.506 426.598 248.445 429.738 244.379C432.66 240.626 434.141 236.053 434.141 230.783C434.141 225.877 432.681 221.598 429.802 218.065C426.735 214.352 422.74 212.468 417.931 212.468ZM416.951 252.748C410.946 252.748 405.952 250.786 402.106 246.919C398.262 243.054 396.313 238.044 396.313 232.029C396.313 226.023 398.294 220.835 402.202 216.612C406.121 212.375 411.156 210.227 417.169 210.227C423.003 210.227 427.776 212.259 431.353 216.267C434.803 220.073 436.554 224.977 436.554 230.836C436.554 236.795 434.827 241.911 431.421 246.04C427.735 250.491 422.866 252.748 416.951 252.748Z" fill="#645524"/>
<path d="M478.89 252.26C478.42 252.26 478.024 251.876 477.48 250.89C476.757 249.488 472.478 240.893 464.75 225.324L461.7 228.406V241.733C461.7 244.185 461.792 247.405 461.972 251.303L461.998 251.88H454.742L454.769 251.303C454.949 247.46 455.041 244.605 455.041 242.818V228.406L451.996 225.33C449.167 231.163 444.889 239.749 439.271 250.872C438.926 251.557 438.487 252.26 437.851 252.26C436.881 252.26 436.535 251.667 436.535 251.112C436.535 250.764 436.725 250.349 437.17 249.725C437.62 248.979 437.788 248.712 437.868 248.598L450.191 223.781L440.988 214.14C440.943 214.095 440.728 213.908 439.956 213.372C439.129 212.798 438.821 212.433 438.821 212.025C438.821 211.25 439.284 210.769 440.028 210.769C440.424 210.769 440.967 210.769 448.207 218.145C450.448 220.535 452.741 222.95 455.041 225.344V221.295C455.041 218.861 454.949 215.641 454.769 211.725L454.743 211.148H461.999L461.972 211.726C461.792 215.517 461.7 218.372 461.7 220.211V225.345C464.008 222.947 466.318 220.532 468.582 218.151C475.772 210.769 476.316 210.769 476.713 210.769C477.491 210.769 477.974 211.25 477.974 212.025C477.974 212.431 477.66 212.803 476.815 213.397L476.793 213.412L476.77 213.425C476.546 213.552 476.195 213.803 475.725 214.169L466.55 223.781L479 248.743C479.061 248.847 479.219 249.104 479.626 249.727C480.067 250.342 480.26 250.762 480.26 251.112C480.26 251.667 479.9 252.26 478.89 252.26Z" fill="#645524"/>
<path d="M510.513 252.26C510.117 252.26 509.198 252.095 509.198 250.57C509.198 250.366 509.216 250.09 509.255 249.725C509.289 249.399 509.307 249.172 509.307 249.052V227.864H490.002V241.733C490.002 244.18 490.094 247.4 490.275 251.303L490.301 251.88H483.044L483.072 251.302C483.252 247.599 483.344 244.744 483.344 242.818V220.157C483.344 218.303 483.252 215.467 483.072 211.726L483.044 211.148H490.302L490.275 211.726C490.094 215.522 490.002 218.377 490.002 220.211V225.623H509.306C509.302 224.12 509.284 222.014 509.252 219.215C509.216 216.158 509.198 213.812 509.198 212.242C509.198 211.319 509.689 210.769 510.513 210.769C511.123 210.769 511.774 211.142 511.774 212.188V250.841C511.774 251.887 511.123 252.26 510.513 252.26Z" fill="#645524"/>
<path d="M544.803 252.314C544.424 252.314 543.542 252.155 543.542 250.678C543.542 250.473 543.56 250.205 543.6 249.858C543.633 249.551 543.651 249.334 543.651 249.215V219.149L519.557 234.231C519.559 236.11 519.577 238.848 519.611 242.378V250.787C519.611 252.154 518.646 252.259 518.35 252.259C517.741 252.259 517.089 251.901 517.089 250.895V212.134C517.089 211.127 517.741 210.769 518.35 210.769C518.659 210.769 519.666 210.887 519.666 212.405C519.666 214.073 519.648 216.575 519.611 220.054C519.582 222.807 519.564 225.016 519.559 226.639L542.143 212.495C542.678 212.08 543.509 211.54 544.683 210.846L544.814 210.769H544.966C546.064 210.769 546.064 212.39 546.064 213.001V250.787C546.064 252.204 545.099 252.314 544.803 252.314Z" fill="#645524"/>
<path d="M582.032 256.163C581.636 256.163 580.716 255.993 580.716 254.419C580.716 254.04 580.735 253.51 580.771 252.844C580.791 252.469 580.806 252.15 580.814 251.88H551.134L551.162 251.302C551.342 247.563 551.433 244.689 551.433 242.763V220.319C551.433 218.322 551.342 215.431 551.162 211.726L551.134 211.148H558.391L558.364 211.725C558.183 215.63 558.092 218.703 558.092 220.862V249.639H577.396V214.139C577.396 213.983 577.379 213.728 577.344 213.38C577.306 213.001 577.287 212.717 577.287 212.513C577.287 210.939 578.207 210.769 578.603 210.769C579.212 210.769 579.863 211.142 579.863 212.187C579.863 214.898 579.828 218.873 579.755 224.338C579.683 229.64 579.646 233.724 579.646 236.475C579.646 241.332 579.729 245.758 579.895 249.639H583.46L583.399 250.246C583.328 250.942 583.293 252.456 583.293 254.744C583.293 255.79 582.641 256.163 582.032 256.163Z" fill="#645524"/>
</g>
</g>
<defs>
<clipPath id="clip0_37_3">
<rect width="465" height="147" fill="white" transform="translate(135 124)"/>
</clipPath>
</defs>
</svg>
