<svg width="345" height="774" viewBox="0 0 345 774" fill="none" xmlns="http://www.w3.org/2000/svg">
<path d="M169.751 773.265C263.502 773.265 339.502 757.983 339.502 739.132C339.502 720.282 263.502 705 169.751 705C76.0002 705 0 720.282 0 739.132C0 757.983 76.0002 773.265 169.751 773.265Z" fill="#C3AC58"/>
<path opacity="0.5" d="M169.751 773.265C263.502 773.265 339.502 757.983 339.502 739.132C339.502 720.282 263.502 705 169.751 705C76.0002 705 0 720.282 0 739.132C0 757.983 76.0002 773.265 169.751 773.265Z" fill="white"/>
<path d="M83.4645 306.459C77.978 302.613 71.1621 302.155 64.664 302.264C58.1961 302.373 49.8854 302.407 44.3745 306.319C39.8901 309.503 38.9575 315.559 43.5547 319.08C48.6181 322.958 56.2237 322.809 62.1182 321.408C70.301 319.464 77.3274 314.566 84.0681 309.755C84.7995 309.232 84.0962 308.008 83.3554 308.536C77.1205 312.989 70.6695 317.544 63.2069 319.665C59.249 320.79 55.0241 321.248 50.9477 320.526C47.3621 319.891 42.4322 318.161 41.8738 313.968C41.2928 309.597 45.4744 306.761 49.1051 305.612C52.954 304.394 57.0547 303.99 61.069 303.792C68.3963 303.431 76.485 303.287 82.75 307.679C83.4964 308.2 84.2034 306.977 83.4645 306.459Z" fill="#263238"/>
<path d="M85.4443 303.853C85.8673 296.636 82.1087 290.183 78.2618 284.372C76.2462 281.326 74.082 278.353 71.5907 275.674C69.4416 273.365 66.9597 271.084 63.8761 270.142C61.4337 269.395 58.5701 269.606 56.4774 271.157C54.1384 272.891 53.4427 275.895 53.6702 278.669C54.176 284.851 58.07 290.499 62.5336 294.572C68.4188 299.94 75.8438 303.11 83.1052 306.141C83.9419 306.491 84.3067 305.126 83.4794 304.781C72.7753 300.314 60.5256 294.79 56.1521 283.11C55.1707 280.491 54.4919 277.368 55.5486 274.668C56.7632 271.563 60.236 270.595 63.2594 271.436C66.2151 272.255 68.556 274.483 70.5923 276.672C72.7941 279.037 74.7251 281.636 76.5301 284.313C80.4429 290.119 84.459 296.58 84.0341 303.853C83.9815 304.759 85.3916 304.755 85.4443 303.853Z" fill="#263238"/>
<path d="M51.4272 180.754C51.4272 180.754 15.244 226.568 12.8486 232.173C9.4548 240.118 16.972 250.772 22.481 254.286C46.1757 269.399 76.4832 292.475 76.4832 292.475L89.8723 274.356L48.778 234.493L80.2511 204.041L51.4272 180.754Z" fill="white"/>
<path opacity="0.3" d="M39.6421 195.816L64.8108 218.983L69.4832 214.461L41.669 193.209L39.6421 195.816Z" fill="black"/>
<path opacity="0.3" d="M48.7779 234.493C48.7779 234.493 36.1672 235.19 33.2867 237.142C33.2867 237.142 39.0477 229.615 51.1789 232.173L48.7779 234.493Z" fill="black"/>
<path d="M341.669 145.667C339.151 139.87 332.41 137.211 326.614 139.729C326.552 139.755 326.49 139.784 326.427 139.812L317.604 143.77C317.604 143.77 300.68 150.561 302.71 166.765L305.572 168.636C310.212 171.661 315.97 172.428 321.24 170.721L335.009 166.229C337.491 165.434 339.771 164.112 341.693 162.352C344.754 159.562 345.7 155.134 344.045 151.336L341.669 145.667Z" fill="white"/>
<path d="M237.713 168.395C240.362 170.202 265.615 213.635 265.615 213.635L303.842 163.937L321.462 170.089C321.462 170.089 288.212 244.394 266.772 250.168C245.331 255.94 215.438 198.347 215.438 198.347L237.713 168.395Z" fill="white"/>
<path d="M313.969 156.335C316.081 152.859 314.398 135.106 306.482 132.861C302.819 131.817 306.055 139.866 306.001 142.833C306.001 150.854 300.012 164.571 303.996 165.721C307.981 166.87 310.333 162.405 313.969 156.335Z" fill="white"/>
<path d="M312.499 134.931C313.289 135.269 313.956 135.827 314.428 136.527C314.684 136.907 315.263 136.83 315.429 136.403L338.151 78.3338C338.369 77.7772 339.189 77.9107 339.228 78.5067C340.398 96.1132 334.111 112.938 333.304 115.011C333.249 115.152 333.142 115.258 333.005 115.316L325.202 118.61C325.063 118.668 324.954 118.781 324.899 118.922L314.637 145.439C312.873 150.012 309.023 152.793 306.054 151.616C303.087 150.439 302.124 145.813 303.914 141.243C305.708 136.668 309.585 133.754 312.499 134.931ZM306.911 149.181C309.023 150.01 311.803 148.004 313.088 144.715C314.372 141.427 313.702 138.084 311.563 137.256C309.423 136.427 306.642 138.405 305.36 141.696C304.078 144.984 304.771 148.352 306.911 149.181Z" fill="#263238"/>
<path opacity="0.3" d="M312.499 134.931C313.289 135.269 313.956 135.827 314.428 136.527C314.684 136.907 315.263 136.83 315.429 136.403L338.151 78.3338C338.369 77.7772 339.189 77.9107 339.228 78.5067C340.398 96.1132 334.111 112.938 333.304 115.011C333.249 115.152 333.142 115.258 333.005 115.316L325.202 118.61C325.063 118.668 324.954 118.781 324.899 118.922L314.637 145.439C312.873 150.012 309.023 152.793 306.054 151.616C303.087 150.439 302.124 145.813 303.914 141.243C305.708 136.668 309.585 133.754 312.499 134.931ZM306.911 149.181C309.023 150.01 311.803 148.004 313.088 144.715C314.372 141.427 313.702 138.084 311.563 137.256C309.423 136.427 306.642 138.405 305.36 141.696C304.078 144.984 304.771 148.352 306.911 149.181Z" fill="white"/>
<path d="M331.617 135.944C330.427 136.267 329.427 137.07 328.851 138.161L314.28 77.0101C314.103 76.2655 313.025 76.2862 312.879 77.0383C310.145 90.9219 312.177 104.849 313.296 110.681C313.638 112.466 314.704 114.024 316.248 114.979L321.481 118.215L328.075 145.9C329.195 150.668 332.623 153.951 335.72 153.206C338.817 152.462 340.411 147.996 339.29 143.228C338.172 138.462 334.844 135.224 331.617 135.944ZM335.175 150.826C332.956 151.375 330.451 148.993 329.66 145.563C328.868 142.132 329.993 138.913 332.208 138.388C334.421 137.866 336.908 140.19 337.722 143.651C338.536 147.113 337.521 150.326 335.261 150.95L335.175 150.826Z" fill="#263238"/>
<path opacity="0.3" d="M331.617 135.944C330.427 136.267 329.427 137.07 328.851 138.161L314.28 77.0101C314.103 76.2655 313.025 76.2862 312.879 77.0383C310.145 90.9219 312.177 104.849 313.296 110.681C313.638 112.466 314.704 114.024 316.248 114.979L321.481 118.215L328.075 145.9C329.195 150.668 332.623 153.951 335.72 153.206C338.817 152.462 340.411 147.996 339.29 143.228C338.172 138.462 334.844 135.224 331.617 135.944ZM335.175 150.826C332.956 151.375 330.451 148.993 329.66 145.563C328.868 142.132 329.993 138.913 332.208 138.388C334.421 137.866 336.908 140.19 337.722 143.651C338.536 147.113 337.521 150.326 335.261 150.95L335.175 150.826Z" fill="white"/>
<path d="M334.317 139.276C329.397 138.287 323.622 138.768 321.75 141.95C319.877 145.131 323.434 146.361 325.493 145.639C327.552 144.917 335.039 148.82 336.188 147.03C337.339 145.238 334.317 139.276 334.317 139.276Z" fill="white"/>
<path d="M306.482 132.859C303.487 132.003 305.119 137.298 305.786 140.88C305.924 141.53 305.995 142.194 306.001 142.858L311.884 138.072C310.88 135.666 308.924 133.778 306.482 132.859Z" fill="white"/>
<path opacity="0.3" d="M265.614 213.637L262.938 228.925L261.477 206.566L265.614 213.637Z" fill="black"/>
<path d="M131.26 662.875L123.557 719.399L105.134 720.329L99.17 665.84L131.26 662.875Z" fill="white"/>
<path d="M88.9885 744.998H130.192C130.192 744.998 131.091 743.266 130.064 738.66C129.908 737.942 129.703 737.154 129.436 736.293C129.421 736.249 129.412 736.206 129.398 736.165C129.013 734.89 128.571 733.322 128.101 731.63C126.213 724.731 123.993 715.717 123.993 715.717C123.993 715.717 117.137 701.04 109.118 704.707C102.082 707.92 103.75 717.12 103.75 717.12C103.75 717.12 103.06 722.52 97.7259 727.285C94.4261 730.227 91.147 732.506 89.5676 736.165C89.2724 736.849 89.0393 737.577 88.8738 738.367C88.855 738.462 88.8362 738.562 88.8211 738.662C88.494 740.425 88.5128 742.494 88.9885 744.998Z" fill="#263238"/>
<path opacity="0.6" d="M130.064 738.662C131.091 743.268 130.192 745 130.192 745H88.9884C88.5127 742.494 88.494 740.425 88.8211 738.662H130.064Z" fill="white"/>
<path d="M105.409 718.694C107.727 716.889 110.767 717.122 112.851 719.154C113.411 719.701 114.272 718.842 113.71 718.295C111.108 715.759 107.394 715.616 104.548 717.834C103.933 718.314 104.8 719.169 105.409 718.694Z" fill="white"/>
<path d="M104.247 722.543C106.565 720.737 109.605 720.971 111.689 723.003C112.249 723.55 113.11 722.691 112.548 722.144C109.946 719.606 106.232 719.465 103.385 721.683C102.769 722.163 103.636 723.018 104.247 722.543Z" fill="white"/>
<path d="M103.077 726.081C105.395 724.276 108.436 724.509 110.519 726.544C111.079 727.091 111.94 726.231 111.378 725.684C108.776 723.146 105.062 723.005 102.216 725.222C101.601 725.701 102.468 726.555 103.077 726.081Z" fill="white"/>
<path d="M185.789 663.834L197.222 719.722L215.664 719.431L218.005 664.665L185.789 663.834Z" fill="white"/>
<path d="M231.717 744.998L190.514 744.962C190.514 744.962 189.617 743.231 190.647 738.624C190.805 737.906 191.01 737.118 191.277 736.257C191.292 736.214 191.302 736.17 191.315 736.129C191.7 734.854 192.144 733.286 192.616 731.594C194.509 724.697 196.737 715.685 196.737 715.685C196.737 715.685 203.606 701.016 211.623 704.688C218.657 707.909 216.98 717.105 216.98 717.105C216.98 717.105 217.664 722.507 222.995 727.275C226.291 730.221 229.57 732.502 231.146 736.163C231.439 736.847 231.672 737.575 231.837 738.365C231.856 738.461 231.875 738.56 231.89 738.66C232.215 740.425 232.195 742.494 231.717 744.998Z" fill="#263238"/>
<path opacity="0.6" d="M190.647 738.626C189.617 743.233 190.514 744.964 190.514 744.964L231.717 745C232.195 742.496 232.215 740.427 231.888 738.662L190.647 738.626Z" fill="white"/>
<path d="M215.32 719.416C213.003 717.609 209.963 717.84 207.876 719.871C207.315 720.418 206.454 719.557 207.016 719.01C209.621 716.475 213.336 716.336 216.179 718.557C216.796 719.038 215.929 719.893 215.32 719.416Z" fill="white"/>
<path d="M216.48 723.267C214.163 721.46 211.123 721.691 209.036 723.722C208.475 724.269 207.614 723.408 208.176 722.86C210.781 720.326 214.494 720.187 217.339 722.407C217.956 722.887 217.089 723.742 216.48 723.267Z" fill="white"/>
<path d="M217.644 726.805C215.327 724.998 212.287 725.227 210.2 727.26C209.64 727.807 208.778 726.946 209.341 726.399C211.945 723.864 215.658 723.725 218.503 725.946C219.12 726.427 218.253 727.281 217.644 726.805Z" fill="white"/>
<path d="M225.695 424.054C225.469 378.21 214.889 303.292 214.889 303.292L171.113 305.297C171.13 305.174 171.142 305.092 171.142 305.092H84.384C84.384 305.092 82.8704 380.944 85.6851 426.701C85.7904 433.632 88.9962 642.242 93.9469 702.351L132.085 702.283C139.366 659.226 145.64 510.953 145.64 510.953C147.925 490.405 152.557 442.418 155.415 412.453C159.802 441.963 166.212 489.247 167.178 513.429C167.178 513.429 177.455 660.73 187.575 703.21L225.635 700.749C226.59 640.448 226.05 430.977 225.695 424.054Z" fill="#BBBBBB"/>
<path opacity="0.3" d="M225.695 424.054C225.469 378.21 214.889 303.292 214.889 303.292L171.113 305.297C171.13 305.174 171.142 305.092 171.142 305.092H84.384C84.384 305.092 82.8704 380.944 85.6851 426.701C85.7904 433.632 88.9962 642.242 93.9469 702.351L132.085 702.283C139.366 659.226 145.64 510.953 145.64 510.953C147.925 490.405 152.557 442.418 155.415 412.453C159.802 441.963 166.212 489.247 167.178 513.429C167.178 513.429 177.455 660.73 187.575 703.21L225.635 700.749C226.59 640.448 226.05 430.977 225.695 424.054Z" fill="black"/>
<path opacity="0.3" d="M144.448 536.827L87.8005 536.678V525.511H144.988L144.448 536.827Z" fill="black"/>
<path d="M193.302 517.015C199.157 518.823 205.289 518.451 210.881 515.95C211.685 515.589 211.238 514.237 210.426 514.602C205.035 517.014 199.217 517.364 193.575 515.619C192.725 515.354 192.46 516.753 193.302 517.015Z" fill="black"/>
<path opacity="0.3" d="M168.241 527.918L168.835 535.697L226.148 534.228L226.137 527.029L168.241 527.918Z" fill="black"/>
<path d="M101.075 129.627L141.857 117.952L171.529 121.106L210.653 129.51L221.319 275.98L85.6513 292.475L101.075 129.627Z" fill="#F2BD3D"/>
<path d="M226.362 225.712L263.852 197.275C263.852 197.275 230.493 139.943 210.653 129.51C195.267 121.419 203.436 166.284 213.212 197.465L226.362 225.712Z" fill="#F2BD3D"/>
<path d="M80.5897 222.946L38.668 190.917C38.668 190.917 86.3864 125.868 104.125 129.67C116.543 132.332 111.177 165.96 99.4804 193.765C94.4714 205.671 84.7281 215.269 80.5897 222.946Z" fill="#F2BD3D"/>
<path opacity="0.3" d="M94.0559 203.742C94.8475 202.504 96.6431 178.035 96.6431 178.035C96.6431 178.035 88.0504 212.171 88.2873 211.851C88.5261 211.531 94.0559 203.742 94.0559 203.742Z" fill="black"/>
<path d="M171.911 330.949C172.986 350.097 188.229 365.18 206.667 365.466C207.55 365.479 207.451 364.056 206.573 364.043C188.882 363.768 174.31 349.181 173.281 330.858C173.229 329.941 171.858 330.031 171.911 330.949Z" fill="black"/>
<path d="M208.506 184.279L216.483 262.642L222.568 266.101L225.584 298.791L241.186 526.795L74.7253 529.351C72.1606 486.952 88.3777 317.334 88.3777 317.334L80.8116 315.944L81.5505 292.319C81.5505 292.319 103.455 268.32 103.09 263.603C102.726 258.883 113.87 184.238 113.87 184.238L208.506 184.279Z" fill="#263238"/>
<path d="M202.062 198.436L204.27 127.69C204.27 127.69 194.304 122.125 187.774 124.411C185.576 125.18 189.055 198.436 189.055 198.436H202.062Z" fill="#263238"/>
<path opacity="0.7" d="M202.062 198.436L204.27 127.69C204.27 127.69 194.304 122.125 187.774 124.411C185.576 125.18 189.055 198.436 189.055 198.436H202.062Z" fill="white"/>
<path d="M196.688 194.88C198.207 194.88 199.437 193.649 199.437 192.131C199.437 190.613 198.207 189.382 196.688 189.382C195.17 189.382 193.94 190.613 193.94 192.131C193.94 193.649 195.17 194.88 196.688 194.88Z" fill="#263238"/>
<path d="M125.787 121.978C125.787 121.978 133.522 170.95 134.941 197.276H121.74L112.668 125.562C112.668 125.562 118.815 121.032 125.787 121.978Z" fill="#263238"/>
<path opacity="0.7" d="M125.787 121.978C125.787 121.978 133.522 170.95 134.941 197.276H121.74L112.668 125.562C112.668 125.562 118.815 121.032 125.787 121.978Z" fill="white"/>
<path d="M123.805 190.132C123.805 191.665 125.048 192.91 126.582 192.91C128.116 192.91 129.359 191.667 129.359 190.132C129.359 188.598 128.116 187.355 126.582 187.355C125.048 187.357 123.805 188.6 123.805 190.132Z" fill="#263238"/>
<path d="M186.743 308.698L186.521 310.23L191.955 310.246C192.48 308.734 193.136 307.145 193.901 305.891C193.901 305.891 197.812 304.231 199.138 299.184C200.463 294.138 196.908 290.037 192.752 289.646C188.597 289.255 186.501 293.348 186.426 296.475C186.371 298.742 187.243 303.247 187.243 303.247L186.743 308.698ZM188.77 297.556C188.751 294.429 190.534 291.883 192.749 291.87C194.964 291.857 196.776 294.382 196.793 297.509C196.812 300.636 195.029 303.181 192.815 303.195C190.6 303.208 188.789 300.683 188.77 297.556Z" fill="#F2BD3D"/>
<path d="M184.455 303.249C184.455 303.249 185.328 298.744 185.273 296.476C185.2 293.349 183.101 289.256 178.946 289.647C174.791 290.038 171.237 294.139 172.561 299.186C173.884 304.232 177.797 305.892 177.797 305.892C178.562 307.147 179.221 308.737 179.743 310.247L185.177 310.232L184.955 308.7L184.455 303.249ZM178.884 303.194C176.669 303.181 174.887 300.635 174.905 297.509C174.924 294.382 176.735 291.857 178.95 291.87C181.165 291.883 182.947 294.429 182.928 297.556C182.91 300.682 181.099 303.207 178.884 303.194Z" fill="#F2BD3D"/>
<path opacity="0.3" d="M151.121 394.634H159.674C186.971 394.634 209.1 372.506 209.1 345.208V310.245H101.695V345.208C101.695 372.506 123.824 394.634 151.121 394.634Z" fill="black"/>
<path d="M164.369 281.758H161.084V310.247H164.369V281.758Z" fill="#F2BD3D"/>
<path d="M146.689 309.471V307.536H153.919V306.65H146.689V304.716H153.919V303.83H146.689V301.895H153.919V301.01H146.689V299.075H153.919V298.189H146.689V296.255H153.919V295.369H146.689V293.434H153.919V292.549H146.689V290.614H153.919V289.728H146.689V287.794H153.919V286.908H146.689V284.973H153.919V282.777H145.221C143.854 282.777 142.746 283.885 142.746 285.252V310.253H153.919V309.478H146.689V309.471Z" fill="#F2BD3D"/>
<path d="M178.58 217.746H142.946C142.837 217.746 142.746 217.657 142.746 217.546V212.052C142.746 211.941 142.835 211.853 142.946 211.853H178.58C178.689 211.853 178.779 211.941 178.779 212.052V217.546C178.777 217.657 178.689 217.746 178.58 217.746Z" fill="white"/>
<path d="M87.1628 272.643C87.1628 272.643 99.7942 268.952 103.399 269.444C107.003 269.935 124.051 287.959 123.801 288.286C123.553 288.613 123.553 291.289 118.965 290.196L120.768 295.004C120.768 295.004 120.605 298.281 116.18 297.462C111.756 296.642 109.462 293.201 109.462 293.201L115.035 300.068C115.035 300.068 116.87 304.131 112.283 303.804C107.695 303.477 102.823 297.059 102.823 297.059L108.78 305.654C109.259 306.344 109.148 307.284 108.522 307.844C108.052 308.265 107.394 308.386 106.806 308.158C105.676 307.722 103.481 306.615 99.5047 303.804C92.7866 299.052 91.4366 293.951 91.4366 293.951C91.4366 293.951 84.7881 299.199 76.4812 292.475C69.1408 286.53 87.1628 272.643 87.1628 272.643Z" fill="white"/>
<path opacity="0.3" d="M87.8942 272.434L82.3719 285.522L84.7636 269.399L87.8942 272.434Z" fill="black"/>
<path d="M195.553 45.7495C197.044 43.7471 197.952 41.3178 198.14 38.8284C194.69 40.6635 190.288 38.975 187.513 36.2261C184.736 33.4772 183.046 29.8427 180.763 26.6708C176.542 20.8026 170.168 16.5194 163.14 14.8291C156.111 13.1388 147.383 11.6741 140.955 14.9814C137.768 16.621 130.858 23.8222 129.419 27.1051L149.596 54.2256C149.228 54.2181 149.38 54.8197 149.651 55.0717C151.335 56.636 153.02 58.2023 154.703 59.7666C155.968 60.9436 157.254 62.1338 158.791 62.9273C160.443 63.7809 162.303 64.1325 164.144 64.3976C170.142 65.2663 176.252 65.3396 182.269 64.6157C185.131 64.2716 188.039 63.7226 190.521 62.2542C193.468 60.5112 195.54 57.6401 197.525 54.8498C199.84 51.597 202.216 48.2013 202.916 44.2698C200.708 45.5389 198.082 46.0673 195.553 45.7495Z" fill="#263238"/>
<path d="M141.148 123.676C141.148 123.676 144.341 110.083 138.486 85.4656C138.488 85.4393 139.795 84.9354 139.796 84.9091C138.992 81.4682 138.112 78.2794 137.271 75.5135C137.253 75.4327 137.254 75.4064 137.254 75.4064L169.457 97.5442C168.299 105.268 170.354 120.402 171.708 126.818C171.708 126.818 175.34 138.494 160.058 138.251C148.889 138.076 141.148 123.676 141.148 123.676Z" fill="white"/>
<path d="M152.151 101.91C156.141 106.479 163.079 109.051 169.44 109.187C169.348 108.621 169.365 107.769 169.299 107.207C169.192 106.321 169.199 104.965 169.151 104.035C169.1 102.892 169.079 101.649 169.139 100.464C169.194 99.9941 169.384 100.062 169.438 99.5937L169.551 98.6272L150.286 92.0878C148.722 93.2272 148.934 98.2004 152.151 101.91Z" fill="black"/>
<path d="M126.076 54.6355C121.46 33.953 139.428 14.9081 160.879 19.8832C182.651 24.9335 190.45 55.4835 188.959 74.9665C187.302 96.6117 163.045 110.29 144.604 96.6963C132.343 87.658 130.692 75.3199 126.076 54.6355Z" fill="white"/>
<path d="M120.432 51.3676C120.708 52.131 121.067 52.915 121.521 53.7216C123.76 57.7209 126.791 69.3388 132.979 76.7714C132.46 75.7316 131.993 74.6054 131.555 73.3682C130.094 69.243 128.286 63.5045 126.409 56.5852C128.081 56.636 129.286 57.0948 130.38 57.6739C138.366 61.9044 141.276 65.8717 144.638 61.9721C147.389 58.7757 141.772 46.1594 141.223 39.5842C140.407 32.4863 143.948 18.7794 138.208 22.5907C137.933 22.773 137.243 23.0476 136.269 23.3879C124.736 27.4304 117.971 39.3943 120.432 51.3676Z" fill="#263238"/>
<path opacity="0.3" d="M127.308 59.8156C127.011 58.7664 126.714 57.6984 126.411 56.5853C128.083 56.6361 129.288 57.0949 130.382 57.674C138.367 61.9045 141.278 65.8718 144.64 61.9722C147.116 59.0955 142.824 48.6019 141.539 41.7353C141.53 41.7108 141.524 41.6958 141.524 41.6958C141.684 42.493 123.245 45.1554 119.96 45.7872C119.911 47.6279 120.046 49.495 120.43 51.3658C121.519 53.7199 123.201 57.5029 123.201 57.5029C123.201 57.5029 125.082 58.5483 127.308 59.8156Z" fill="white"/>
<path d="M156.017 59.2101C156.207 61.3667 157.504 63.0025 158.916 62.8634C160.327 62.7242 161.316 60.8647 161.126 58.7081C160.936 56.5514 159.637 54.9156 158.228 55.0548C156.816 55.192 155.827 57.0535 156.017 59.2101Z" fill="#263238"/>
<path d="M176.92 57.7981C177.109 59.9547 178.407 61.5905 179.817 61.4514C181.227 61.3122 182.216 59.4527 182.026 57.2961C181.836 55.1394 180.539 53.5036 179.129 53.6428C177.717 53.7819 176.728 55.6433 176.92 57.7981Z" fill="#263238"/>
<path d="M170.698 55.2108C170.698 55.2108 178.471 65.3227 181.043 69.4912C178.281 72.4676 173.001 71.6741 173.001 71.6741L170.698 55.2108Z" fill="#808080"/>
<path d="M150.478 47.5488C150.815 47.6522 151.2 47.577 151.478 47.3176C154.72 44.2941 158.117 44.9804 158.473 45.0594C159.016 45.1891 159.569 44.8563 159.704 44.3148C159.84 43.7733 159.507 43.2281 158.965 43.0964C158.774 43.0494 154.214 42.0116 150.096 45.851C149.685 46.2345 149.662 46.8738 150.042 47.2781C150.168 47.4097 150.316 47.4981 150.478 47.5488Z" fill="#263238"/>
<path d="M186.36 45.8737C186.545 45.8173 186.714 45.7063 186.845 45.5446C187.201 45.1103 187.141 44.4691 186.712 44.1138C182.402 40.5583 177.961 41.9666 177.754 42.0042C177.222 42.1772 176.925 42.7469 177.091 43.2827C177.256 43.8148 177.818 44.11 178.347 43.9446C178.529 43.8788 181.964 42.8371 185.424 45.6913C185.695 45.9151 186.048 45.9715 186.36 45.8737Z" fill="#263238"/>
<path d="M138.059 78.8867C139.411 77.4389 140.099 75.4797 140.404 73.5224C141.084 69.1584 139.956 64.5424 137.341 60.9832L144.64 61.974C144.64 61.974 145.666 70.9333 151.583 71.77C157.501 72.6067 159.332 70.4952 164.185 71.4993C169.04 72.5033 169.549 75.224 169.549 75.224C169.549 75.224 173.443 73.4829 176.895 74.1861C180.347 74.8893 186.947 78.1309 188.167 79.8569C189.386 81.5849 190.247 86.4735 186.716 87.1691C188.173 87.3948 189.991 90.9296 189.872 92.3999C189.754 93.8684 188.737 95.1507 187.49 95.9348C188.989 97.2058 189.412 99.5787 188.447 101.29C187.481 103.003 185.23 103.864 183.367 103.238C183.773 104.715 183.169 106.346 182.101 107.444C181.034 108.542 179.563 109.172 178.074 109.533C175.336 110.194 172.403 110.02 169.763 109.038C169.024 110.392 167.229 110.655 165.691 110.759C162.886 110.945 160.001 111.106 157.329 110.232C154.658 109.358 152.213 107.205 151.843 104.418C149.419 104.042 146.928 103.553 144.909 102.16C142.891 100.767 141.462 98.2362 142.071 95.8614C142.184 95.4196 142.361 94.9383 142.163 94.5284C142.036 94.2633 141.776 94.0922 141.534 93.9267C137.015 90.8807 133.168 84.3093 132.091 78.9676C134.003 79.4809 136.707 80.3345 138.059 78.8867Z" fill="#263238"/>
<path d="M161.509 74.647C161.509 74.647 164.867 78.1968 171.9 80.0526C171.9 80.0526 169.357 84.537 164.952 82.9538C159.625 81.0398 161.509 74.647 161.509 74.647Z" fill="white"/>
<path d="M183.918 34.9363C182.417 32.5447 180.485 30.4614 178.764 28.2239C177.26 26.2666 175.88 24.1476 173.896 22.6753C172.133 21.3667 170.008 20.6597 167.913 20.0017C163.773 18.7024 159.561 17.5141 155.237 17.1531C150.912 16.7921 146.432 17.2979 142.551 19.2439C141.037 20.0035 139.484 21.2125 139.375 22.9028L141.034 34.1824C143.173 29.1151 146.749 29.5043 149.325 31.8377C150.908 33.2723 152.415 34.8122 154.195 35.993C157.399 38.1177 161.306 39.1574 165.142 38.9055C163.2 35.6677 161.255 32.43 159.313 29.1922C163.527 32.116 167.769 35.0567 172.433 37.1888C176.957 39.2571 181.831 40.5432 186.193 42.9329C186.477 40.1239 185.418 37.328 183.918 34.9363Z" fill="#263238"/>
<path d="M121.218 68.8612C123.461 74.3308 128.03 78.2285 132.554 79.9997C139.358 82.6621 141.16 75.3198 139.934 68.4927C138.83 62.3481 136.356 54.9625 129.207 55.2183C122.164 55.4702 118.655 62.6076 121.218 68.8612Z" fill="white"/>
<path opacity="0.2" d="M125.674 62.382C126.439 61 128.192 60.3626 129.752 60.6033C131.313 60.844 132.678 61.8236 133.722 63.01C134.974 64.4333 135.848 66.1876 136.226 68.0452" stroke="black" stroke-width="0.5" stroke-miterlimit="10" stroke-linecap="round" stroke-linejoin="round"/>
<path d="M269.934 5.70296C258.025 -3.51224 240.902 -1.32781 231.688 10.5799C224.574 19.7734 224.28 32.0616 229.983 41.4326L227.601 49.2664L236.221 48.531C236.34 48.6255 236.443 48.7328 236.565 48.826C248.472 58.0412 265.597 55.8567 274.811 43.949C284.026 32.0399 281.843 14.9169 269.934 5.70296Z" fill="#F2BD3D"/>
<path d="M272.903 4.00623C280.114 9.16153 284.431 18.1214 283.966 26.974" stroke="#F2BD3D" stroke-width="0.5" stroke-miterlimit="10" stroke-linecap="round" stroke-linejoin="round"/>
<path d="M283.61 31.0262C283.639 32.3783 283.386 33.7354 282.87 34.9853" stroke="#F2BD3D" stroke-width="0.5" stroke-miterlimit="10" stroke-linecap="round" stroke-linejoin="round"/>
<path d="M250.829 38.7017C250.205 38.1004 249.892 37.3689 249.892 36.5045C249.892 35.6415 250.199 34.9202 250.813 34.3418C251.425 33.7622 252.209 33.4737 253.163 33.4737C254.117 33.4737 254.901 33.7635 255.513 34.3418C256.126 34.9214 256.433 35.6415 256.433 36.5045C256.433 37.3676 256.12 38.1004 255.496 38.7017C254.871 39.3043 254.094 39.6044 253.163 39.6044C252.231 39.6044 251.454 39.3043 250.829 38.7017ZM249.996 15.4901H256.331L255.275 31.0556H251.051L249.996 15.4901Z" fill="white"/>
</svg>
