<svg width="172" height="35" viewBox="0 0 172 35" fill="none" xmlns="http://www.w3.org/2000/svg">
<path d="M17.5 1.61804L20.9535 12.2467L21.0657 12.5922H21.429L32.6046 12.5922L23.5634 19.1611L23.2695 19.3746L23.3817 19.7201L26.8352 30.3488L17.7939 23.7799L17.5 23.5664L17.2061 23.7799L8.16481 30.3488L11.6183 19.7201L11.7305 19.3746L11.4366 19.1611L2.39535 12.5922L13.571 12.5922H13.9343L14.0465 12.2467L17.5 1.61804Z" fill="#F2BD3D" stroke="#EBAF29"/>
<path d="M154.5 1.61804L157.953 12.2467L158.066 12.5922H158.429L169.605 12.5922L160.563 19.1611L160.269 19.3746L160.382 19.7201L163.835 30.3488L154.794 23.7799L154.5 23.5664L154.206 23.7799L145.165 30.3488L148.618 19.7201L148.731 19.3746L148.437 19.1611L139.395 12.5922L150.571 12.5922H150.934L151.047 12.2467L154.5 1.61804Z" fill="#F2BD3D" stroke="#EBAF29"/>
<path d="M119.5 1.61804L122.953 12.2467L123.066 12.5922H123.429L134.605 12.5922L125.563 19.1611L125.269 19.3746L125.382 19.7201L128.835 30.3488L119.794 23.7799L119.5 23.5664L119.206 23.7799L110.165 30.3488L113.618 19.7201L113.731 19.3746L113.437 19.1611L104.395 12.5922L115.571 12.5922H115.934L116.047 12.2467L119.5 1.61804Z" fill="#F2BD3D" stroke="#EBAF29"/>
<path d="M87.5 1.61804L90.9535 12.2467L91.0657 12.5922H91.429L102.605 12.5922L93.5634 19.1611L93.2695 19.3746L93.3817 19.7201L96.8352 30.3488L87.7939 23.7799L87.5 23.5664L87.2061 23.7799L78.1648 30.3488L81.6183 19.7201L81.7305 19.3746L81.4366 19.1611L72.3954 12.5922L83.571 12.5922H83.9343L84.0465 12.2467L87.5 1.61804Z" fill="#F2BD3D" stroke="#EBAF29"/>
<path d="M52.5 1.61804L55.9535 12.2467L56.0657 12.5922H56.429L67.6046 12.5922L58.5634 19.1611L58.2695 19.3746L58.3817 19.7201L61.8352 30.3488L52.7939 23.7799L52.5 23.5664L52.2061 23.7799L43.1648 30.3488L46.6183 19.7201L46.7305 19.3746L46.4366 19.1611L37.3954 12.5922L48.571 12.5922H48.9343L49.0465 12.2467L52.5 1.61804Z" fill="#F2BD3D" stroke="#EBAF29"/>
</svg>
