<svg width="1920" height="779" viewBox="0 0 1920 779" fill="none" xmlns="http://www.w3.org/2000/svg">
<path fill-rule="evenodd" clip-rule="evenodd" d="M-5 0L75.2083 72.1296C155.417 144.259 315.833 288.519 476.25 360.648C636.667 432.778 797.083 432.778 957.5 360.648C1117.92 288.519 1278.33 144.259 1438.75 115.407C1599.17 86.5556 1759.58 173.111 1839.79 216.389L1920 259.667V779H1839.79C1759.58 779 1599.17 779 1438.75 779C1278.33 779 1117.92 779 957.5 779C797.083 779 636.667 779 476.25 779C315.833 779 155.417 779 75.2083 779H-5V0Z" fill="url(#paint0_linear_340_222)"/>
<defs>
<linearGradient id="paint0_linear_340_222" x1="957.5" y1="0" x2="957.5" y2="779" gradientUnits="userSpaceOnUse">
<stop stop-color="#EDE6CD"/>
<stop offset="1" stop-color="#EDE6CD" stop-opacity="0"/>
</linearGradient>
</defs>
</svg>
