<svg width="1917" height="670" viewBox="0 0 1917 670" fill="none" xmlns="http://www.w3.org/2000/svg">
<path fill-rule="evenodd" clip-rule="evenodd" d="M0 0L79.875 86.8518C159.75 173.704 319.5 347.407 479.25 359.815C639 372.222 798.75 223.333 958.5 161.296C1118.25 99.2593 1278 124.074 1437.75 173.704C1597.5 223.333 1757.25 297.778 1837.12 335L1917 372.222V670H1837.12C1757.25 670 1597.5 670 1437.75 670C1278 670 1118.25 670 958.5 670C798.75 670 639 670 479.25 670C319.5 670 159.75 670 79.875 670H0V0Z" fill="url(#paint0_linear_78_998)"/>
<defs>
<linearGradient id="paint0_linear_78_998" x1="958.5" y1="0" x2="958.5" y2="670" gradientUnits="userSpaceOnUse">
<stop stop-color="#EDE6CD"/>
<stop offset="1" stop-color="#EDE6CD" stop-opacity="0"/>
</linearGradient>
</defs>
</svg>
